<svg xmlns="http://www.w3.org/2000/svg" xmlns:xlink="http://www.w3.org/1999/xlink" width="1122" zoomAndPan="magnify" viewBox="0 0 841.92 595.499987" height="793" preserveAspectRatio="xMidYMid meet" version="1.0"><defs><clipPath id="51e1b34b79"><path d="M 205.613281 172 L 634 172 L 634 504 L 205.613281 504 Z M 205.613281 172 " clip-rule="nonzero"/></clipPath><clipPath id="6f3ad3fe59"><path d="M 138 101 L 232 101 L 232 211 L 138 211 Z M 138 101 " clip-rule="nonzero"/></clipPath><clipPath id="3f020652e1"><path d="M 83.226562 85.773438 L 246.28125 39.992188 L 295.503906 215.308594 L 132.453125 261.089844 Z M 83.226562 85.773438 " clip-rule="nonzero"/></clipPath><clipPath id="878e92abcc"><path d="M 83.226562 85.773438 L 246.28125 39.992188 L 295.503906 215.308594 L 132.453125 261.089844 Z M 83.226562 85.773438 " clip-rule="nonzero"/></clipPath><clipPath id="a53319178a"><path d="M 83.226562 85.773438 L 246.28125 39.992188 L 295.503906 215.308594 L 132.453125 261.089844 Z M 83.226562 85.773438 " clip-rule="nonzero"/></clipPath><clipPath id="acf89a7a4f"><path d="M 171 201 L 219 201 L 219 223 L 171 223 Z M 171 201 " clip-rule="nonzero"/></clipPath><clipPath id="7794b01a34"><path d="M 83.226562 85.773438 L 246.28125 39.992188 L 295.503906 215.308594 L 132.453125 261.089844 Z M 83.226562 85.773438 " clip-rule="nonzero"/></clipPath><clipPath id="25ed5d8db7"><path d="M 83.226562 85.773438 L 246.28125 39.992188 L 295.503906 215.308594 L 132.453125 261.089844 Z M 83.226562 85.773438 " clip-rule="nonzero"/></clipPath><clipPath id="9e02a9d123"><path d="M 83.226562 85.773438 L 246.28125 39.992188 L 295.503906 215.308594 L 132.453125 261.089844 Z M 83.226562 85.773438 " clip-rule="nonzero"/></clipPath><clipPath id="ef5a2e6ccf"><path d="M 171 211 L 220 211 L 220 231 L 171 231 Z M 171 211 " clip-rule="nonzero"/></clipPath><clipPath id="4cbacc1fa8"><path d="M 83.226562 85.773438 L 246.28125 39.992188 L 295.503906 215.308594 L 132.453125 261.089844 Z M 83.226562 85.773438 " clip-rule="nonzero"/></clipPath><clipPath id="c8417849cd"><path d="M 83.226562 85.773438 L 246.28125 39.992188 L 295.503906 215.308594 L 132.453125 261.089844 Z M 83.226562 85.773438 " clip-rule="nonzero"/></clipPath><clipPath id="b8f676145e"><path d="M 83.226562 85.773438 L 246.28125 39.992188 L 295.503906 215.308594 L 132.453125 261.089844 Z M 83.226562 85.773438 " clip-rule="nonzero"/></clipPath><clipPath id="d9282ff5e7"><path d="M 178 222 L 217 222 L 217 237 L 178 237 Z M 178 222 " clip-rule="nonzero"/></clipPath><clipPath id="58b6fb4b71"><path d="M 83.226562 85.773438 L 246.28125 39.992188 L 295.503906 215.308594 L 132.453125 261.089844 Z M 83.226562 85.773438 " clip-rule="nonzero"/></clipPath><clipPath id="a210bddada"><path d="M 83.226562 85.773438 L 246.28125 39.992188 L 295.503906 215.308594 L 132.453125 261.089844 Z M 83.226562 85.773438 " clip-rule="nonzero"/></clipPath><clipPath id="83dc1909d7"><path d="M 83.226562 85.773438 L 246.28125 39.992188 L 295.503906 215.308594 L 132.453125 261.089844 Z M 83.226562 85.773438 " clip-rule="nonzero"/></clipPath><clipPath id="ada88954a8"><path d="M 190 230 L 209 230 L 209 242 L 190 242 Z M 190 230 " clip-rule="nonzero"/></clipPath><clipPath id="3e5bcdfb92"><path d="M 83.226562 85.773438 L 246.28125 39.992188 L 295.503906 215.308594 L 132.453125 261.089844 Z M 83.226562 85.773438 " clip-rule="nonzero"/></clipPath><clipPath id="2eff2a4442"><path d="M 83.226562 85.773438 L 246.28125 39.992188 L 295.503906 215.308594 L 132.453125 261.089844 Z M 83.226562 85.773438 " clip-rule="nonzero"/></clipPath><clipPath id="a53f4eb339"><path d="M 83.226562 85.773438 L 246.28125 39.992188 L 295.503906 215.308594 L 132.453125 261.089844 Z M 83.226562 85.773438 " clip-rule="nonzero"/></clipPath><clipPath id="e76657f648"><path d="M 159 133 L 212 133 L 212 207 L 159 207 Z M 159 133 " clip-rule="nonzero"/></clipPath><clipPath id="5f93e08816"><path d="M 83.226562 85.773438 L 246.28125 39.992188 L 295.503906 215.308594 L 132.453125 261.089844 Z M 83.226562 85.773438 " clip-rule="nonzero"/></clipPath><clipPath id="59f8ca5dfc"><path d="M 83.226562 85.773438 L 246.28125 39.992188 L 295.503906 215.308594 L 132.453125 261.089844 Z M 83.226562 85.773438 " clip-rule="nonzero"/></clipPath><clipPath id="41a5eb8ffa"><path d="M 83.226562 85.773438 L 246.28125 39.992188 L 295.503906 215.308594 L 132.453125 261.089844 Z M 83.226562 85.773438 " clip-rule="nonzero"/></clipPath><clipPath id="9406cab545"><path d="M 185 63 L 197 63 L 197 89 L 185 89 Z M 185 63 " clip-rule="nonzero"/></clipPath><clipPath id="e60d150f49"><path d="M 83.226562 85.773438 L 246.28125 39.992188 L 295.503906 215.308594 L 132.453125 261.089844 Z M 83.226562 85.773438 " clip-rule="nonzero"/></clipPath><clipPath id="966fd1eded"><path d="M 83.226562 85.773438 L 246.28125 39.992188 L 295.503906 215.308594 L 132.453125 261.089844 Z M 83.226562 85.773438 " clip-rule="nonzero"/></clipPath><clipPath id="e04ae84168"><path d="M 83.226562 85.773438 L 246.28125 39.992188 L 295.503906 215.308594 L 132.453125 261.089844 Z M 83.226562 85.773438 " clip-rule="nonzero"/></clipPath><clipPath id="64ddd0d959"><path d="M 223 81 L 245 81 L 245 102 L 223 102 Z M 223 81 " clip-rule="nonzero"/></clipPath><clipPath id="7cabf5493a"><path d="M 83.226562 85.773438 L 246.28125 39.992188 L 295.503906 215.308594 L 132.453125 261.089844 Z M 83.226562 85.773438 " clip-rule="nonzero"/></clipPath><clipPath id="30f91baf72"><path d="M 83.226562 85.773438 L 246.28125 39.992188 L 295.503906 215.308594 L 132.453125 261.089844 Z M 83.226562 85.773438 " clip-rule="nonzero"/></clipPath><clipPath id="a041560730"><path d="M 83.226562 85.773438 L 246.28125 39.992188 L 295.503906 215.308594 L 132.453125 261.089844 Z M 83.226562 85.773438 " clip-rule="nonzero"/></clipPath><clipPath id="953a999c9d"><path d="M 246 134 L 273 134 L 273 139 L 246 139 Z M 246 134 " clip-rule="nonzero"/></clipPath><clipPath id="4b38cbf039"><path d="M 83.226562 85.773438 L 246.28125 39.992188 L 295.503906 215.308594 L 132.453125 261.089844 Z M 83.226562 85.773438 " clip-rule="nonzero"/></clipPath><clipPath id="04c84cf4e3"><path d="M 83.226562 85.773438 L 246.28125 39.992188 L 295.503906 215.308594 L 132.453125 261.089844 Z M 83.226562 85.773438 " clip-rule="nonzero"/></clipPath><clipPath id="12803c5b18"><path d="M 83.226562 85.773438 L 246.28125 39.992188 L 295.503906 215.308594 L 132.453125 261.089844 Z M 83.226562 85.773438 " clip-rule="nonzero"/></clipPath><clipPath id="1efa57d560"><path d="M 237 173 L 259 173 L 259 188 L 237 188 Z M 237 173 " clip-rule="nonzero"/></clipPath><clipPath id="71c844ce50"><path d="M 83.226562 85.773438 L 246.28125 39.992188 L 295.503906 215.308594 L 132.453125 261.089844 Z M 83.226562 85.773438 " clip-rule="nonzero"/></clipPath><clipPath id="6ce8cb07dd"><path d="M 83.226562 85.773438 L 246.28125 39.992188 L 295.503906 215.308594 L 132.453125 261.089844 Z M 83.226562 85.773438 " clip-rule="nonzero"/></clipPath><clipPath id="cdaf2a174f"><path d="M 83.226562 85.773438 L 246.28125 39.992188 L 295.503906 215.308594 L 132.453125 261.089844 Z M 83.226562 85.773438 " clip-rule="nonzero"/></clipPath><clipPath id="4e6c110c80"><path d="M 117 184 L 133 184 L 133 200 L 117 200 Z M 117 184 " clip-rule="nonzero"/></clipPath><clipPath id="ca6a433744"><path d="M 83.226562 85.773438 L 246.28125 39.992188 L 295.503906 215.308594 L 132.453125 261.089844 Z M 83.226562 85.773438 " clip-rule="nonzero"/></clipPath><clipPath id="5050891ae9"><path d="M 83.226562 85.773438 L 246.28125 39.992188 L 295.503906 215.308594 L 132.453125 261.089844 Z M 83.226562 85.773438 " clip-rule="nonzero"/></clipPath><clipPath id="56f3dd4859"><path d="M 83.226562 85.773438 L 246.28125 39.992188 L 295.503906 215.308594 L 132.453125 261.089844 Z M 83.226562 85.773438 " clip-rule="nonzero"/></clipPath><clipPath id="c5854b496c"><path d="M 98 137 L 126 137 L 126 147 L 98 147 Z M 98 137 " clip-rule="nonzero"/></clipPath><clipPath id="c75456c413"><path d="M 83.226562 85.773438 L 246.28125 39.992188 L 295.503906 215.308594 L 132.453125 261.089844 Z M 83.226562 85.773438 " clip-rule="nonzero"/></clipPath><clipPath id="058efa10d0"><path d="M 83.226562 85.773438 L 246.28125 39.992188 L 295.503906 215.308594 L 132.453125 261.089844 Z M 83.226562 85.773438 " clip-rule="nonzero"/></clipPath><clipPath id="e7ae2510c9"><path d="M 83.226562 85.773438 L 246.28125 39.992188 L 295.503906 215.308594 L 132.453125 261.089844 Z M 83.226562 85.773438 " clip-rule="nonzero"/></clipPath><clipPath id="eb6ea57366"><path d="M 132 71 L 147 71 L 147 93 L 132 93 Z M 132 71 " clip-rule="nonzero"/></clipPath><clipPath id="ad9f986fca"><path d="M 83.226562 85.773438 L 246.28125 39.992188 L 295.503906 215.308594 L 132.453125 261.089844 Z M 83.226562 85.773438 " clip-rule="nonzero"/></clipPath><clipPath id="ddb619a62d"><path d="M 83.226562 85.773438 L 246.28125 39.992188 L 295.503906 215.308594 L 132.453125 261.089844 Z M 83.226562 85.773438 " clip-rule="nonzero"/></clipPath><clipPath id="8a76bf5ea5"><path d="M 83.226562 85.773438 L 246.28125 39.992188 L 295.503906 215.308594 L 132.453125 261.089844 Z M 83.226562 85.773438 " clip-rule="nonzero"/></clipPath><clipPath id="8d04ebbf99"><path d="M 207 114 L 223 114 L 223 135 L 207 135 Z M 207 114 " clip-rule="nonzero"/></clipPath><clipPath id="92f056ff3a"><path d="M 83.226562 85.773438 L 246.28125 39.992188 L 295.503906 215.308594 L 132.453125 261.089844 Z M 83.226562 85.773438 " clip-rule="nonzero"/></clipPath><clipPath id="a870082e78"><path d="M 83.226562 85.773438 L 246.28125 39.992188 L 295.503906 215.308594 L 132.453125 261.089844 Z M 83.226562 85.773438 " clip-rule="nonzero"/></clipPath><clipPath id="268549e52b"><path d="M 83.226562 85.773438 L 246.28125 39.992188 L 295.503906 215.308594 L 132.453125 261.089844 Z M 83.226562 85.773438 " clip-rule="nonzero"/></clipPath><clipPath id="a34158ff5a"><path d="M 221 143 L 224 143 L 224 149 L 221 149 Z M 221 143 " clip-rule="nonzero"/></clipPath><clipPath id="a2c3c85b71"><path d="M 83.226562 85.773438 L 246.28125 39.992188 L 295.503906 215.308594 L 132.453125 261.089844 Z M 83.226562 85.773438 " clip-rule="nonzero"/></clipPath><clipPath id="7941752ab2"><path d="M 83.226562 85.773438 L 246.28125 39.992188 L 295.503906 215.308594 L 132.453125 261.089844 Z M 83.226562 85.773438 " clip-rule="nonzero"/></clipPath><clipPath id="c72582fa75"><path d="M 83.226562 85.773438 L 246.28125 39.992188 L 295.503906 215.308594 L 132.453125 261.089844 Z M 83.226562 85.773438 " clip-rule="nonzero"/></clipPath></defs><g clip-path="url(#51e1b34b79)"><path fill="#000000" d="M 592.046875 293.988281 C 600.21875 295.292969 607.515625 286.550781 613.78125 286.019531 C 615.925781 288.304688 612.921875 289.460938 612.332031 291.816406 C 610.472656 299.261719 611.898438 311.730469 612.332031 322.234375 C 612.675781 330.492188 612.019531 334.03125 615.230469 341.789062 C 613.839844 343.59375 616.335938 344.761719 614.507812 346.132812 C 618.28125 354.976562 626.117188 349.300781 633.34375 353.375 C 636.21875 365.003906 619.902344 386.339844 615.957031 396.105469 C 615.09375 398.238281 615.859375 399.835938 615.230469 401.175781 C 613.519531 404.820312 609.523438 408.011719 607.984375 412.039062 C 606.410156 416.164062 605.742188 419.78125 603.640625 423.628906 C 601.25 428 597.714844 431.882812 595.667969 435.941406 C 594.464844 438.332031 594.699219 441.679688 593.496094 443.90625 C 592.601562 445.566406 590.539062 446.363281 589.871094 447.527344 C 589.207031 448.695312 589.929688 451.105469 589.148438 452.597656 C 586.136719 458.363281 582.902344 464.035156 579.730469 470.703125 C 575.628906 479.324219 568.375 501.691406 558.71875 503.296875 C 552.90625 504.261719 548.386719 502.667969 541.328125 501.847656 C 514.460938 498.71875 477.699219 494.027344 441.34375 490.257812 C 430.859375 489.171875 415.496094 485.351562 406.566406 487.363281 C 398.734375 489.128906 392.339844 499.609375 383.382812 499.675781 C 373.375 499.75 363.789062 494.640625 357.296875 483.742188 C 348.714844 484.242188 342.050781 484.328125 334.113281 485.914062 C 330.234375 486.6875 324.359375 485.457031 323.246094 485.914062 C 322.429688 486.246094 321.523438 488.746094 321.070312 488.808594 C 320.675781 488.867188 314.621094 484.679688 310.925781 489.535156 C 308.59375 488.574219 299.589844 488.535156 297.886719 492.433594 C 292.035156 488.171875 278.863281 490.273438 276.148438 493.15625 C 259.820312 491.871094 249.148438 495.222656 223.984375 496.054688 C 217.644531 496.261719 214.304688 498.394531 206.59375 493.15625 C 206.988281 491.128906 206.273438 489.875 205.871094 486.636719 C 214.464844 482.804688 215.851562 467.691406 226.15625 466.359375 C 219.984375 475.53125 229.671875 471.6875 237.75 473.601562 C 232.71875 479.113281 227.984375 474.859375 223.984375 480.121094 C 224.121094 482.15625 226.347656 482.101562 226.882812 483.742188 C 247.773438 479.875 261.746094 482.0625 284.121094 479.394531 C 310.789062 476.21875 332.570312 472.546875 358.746094 473.601562 C 361.910156 477.0625 361.304688 482.761719 364.542969 486.636719 C 366.886719 489.445312 373.421875 493.449219 376.859375 493.878906 C 390.179688 495.554688 396.109375 486.136719 399.320312 476.5 C 400.164062 476.617188 400.609375 476.339844 400.769531 475.773438 C 408.269531 476.09375 412.292969 477.765625 417.433594 477.945312 C 419.667969 478.027344 422.460938 477.242188 426.128906 477.945312 C 430.453125 478.777344 433.746094 479.128906 438.445312 479.394531 C 451.460938 480.136719 465.054688 483.425781 478.292969 485.1875 C 503.898438 488.597656 527.933594 489.566406 547.851562 492.433594 C 546.769531 476.839844 545.160156 464.160156 543.503906 451.148438 C 542.164062 440.640625 544.027344 440.867188 534.808594 443.90625 C 527.828125 446.207031 519.878906 446.386719 514.519531 448.253906 C 498.277344 446.109375 480.726562 444.878906 460.179688 439.5625 C 454.773438 438.160156 450.25 435.144531 444.964844 434.492188 C 426.5 432.207031 404.238281 430.6875 388.453125 443.90625 C 385.617188 446.28125 383.492188 449.421875 379.757812 451.148438 C 339.53125 419.242188 307.6875 441.902344 248.617188 436.664062 C 244.390625 436.289062 241.539062 436.128906 235.578125 435.214844 C 230.6875 434.46875 227.902344 432.4375 223.984375 438.113281 C 224.917969 440.078125 227.585938 440.308594 230.503906 440.285156 C 230.886719 441.8125 238.734375 443.011719 242.097656 443.183594 C 261.132812 444.152344 273.398438 443.953125 301.507812 441.734375 C 318.640625 440.382812 339.875 439.332031 354.398438 446.078125 C 356.777344 447.183594 358.667969 448.304688 359.472656 451.148438 C 355.105469 452.609375 351.195312 448.027344 345.707031 446.804688 C 326.207031 442.46875 302.875 445.113281 282.671875 446.804688 C 270.753906 447.800781 257.777344 447.089844 247.167969 446.804688 C 245.679688 446.765625 242.515625 447.058594 240.648438 446.804688 C 232.367188 445.671875 225.691406 438.359375 223.257812 448.253906 C 231.640625 452.265625 237.648438 451.785156 250.066406 452.597656 C 273.964844 454.164062 295.207031 449.277344 316.722656 448.976562 C 325.839844 448.847656 334.390625 450.691406 344.257812 453.324219 C 346.734375 453.984375 351.125 452.230469 351.5 456.945312 C 325.273438 449.773438 309.394531 455.476562 273.253906 456.945312 C 265.609375 457.253906 258.640625 457.136719 251.515625 456.945312 C 239.554688 456.617188 229.476562 450.582031 224.707031 459.839844 C 230.707031 464.441406 238.539062 462.6875 245.71875 462.738281 C 261.109375 462.84375 275.660156 463.699219 291.367188 462.011719 C 307.589844 460.273438 320.167969 457.164062 334.113281 459.117188 C 337.652344 462.613281 340.957031 458.597656 342.808594 463.460938 C 301.226562 460.914062 275.148438 470.828125 241.371094 467.808594 C 230.660156 466.851562 225.054688 463.535156 218.1875 461.289062 C 217.238281 455.976562 223.839844 456.054688 223.257812 453.324219 C 221.808594 450.625 221.089844 451.671875 217.464844 451.148438 C 215.535156 447.324219 219.378906 444.9375 222.535156 442.457031 C 221.691406 439.921875 218.890625 439.339844 217.464844 437.390625 C 218.765625 435.3125 220.183594 433.351562 221.808594 431.59375 C 218.886719 428.484375 214.503906 426.828125 210.21875 425.078125 C 212.832031 421.058594 217.910156 420.574219 221.808594 417.835938 C 228.277344 413.292969 233.980469 405.082031 239.199219 399.726562 C 244.230469 394.566406 249.949219 390.761719 247.894531 385.242188 C 242.011719 369.441406 247.054688 340.875 273.253906 332.371094 C 273.566406 329.644531 271.722656 329.074219 270.355469 328.027344 C 253.851562 332.945312 241.410156 347.628906 239.921875 366.414062 C 237.519531 367.316406 237.652344 365.351562 234.128906 365.6875 C 222.277344 348.585938 209.984375 342.085938 210.941406 314.265625 C 222.707031 287.367188 257.480469 270.722656 279.046875 272.984375 C 279.613281 267.539062 275.566406 253.695312 279.046875 247.636719 C 266.996094 235.335938 277.988281 214.277344 288.46875 202.007812 C 289.386719 200.929688 292.195312 200.003906 293.539062 198.386719 C 296.570312 194.734375 306.472656 184.640625 312.375 182.453125 C 313.851562 181.90625 316.511719 182.207031 317.449219 181.726562 C 333.859375 173.351562 356.972656 172.34375 373.238281 175.210938 C 376.832031 175.84375 380.574219 176.261719 381.933594 176.660156 C 386.238281 177.925781 393.75 182.15625 394.972656 183.175781 C 396.253906 184.246094 395.5625 185.601562 396.421875 186.796875 C 400.957031 193.121094 408.132812 199.566406 411.636719 207.078125 C 439.386719 197.007812 459.753906 175.988281 494.960938 173.761719 C 495.605469 173.441406 496.253906 173.125 496.40625 172.3125 C 508.792969 174.335938 526.488281 171.53125 541.328125 181.726562 C 543.726562 183.375 545.664062 185.464844 548.574219 187.523438 C 558.046875 194.214844 566.386719 207.515625 571.757812 217.941406 C 575.949219 226.066406 580.042969 235.523438 581.902344 244.015625 C 582.953125 248.804688 586.382812 253.054688 586.976562 256.328125 C 587.171875 257.417969 585.992188 258.871094 586.25 259.949219 C 586.828125 262.371094 588.664062 264.375 589.148438 267.914062 C 590.445312 277.394531 590.074219 283.058594 592.046875 293.988281 Z M 392.800781 190.417969 C 386.53125 185.988281 379.3125 182.816406 371.789062 181.726562 C 348.300781 178.332031 328.125 178.25 310.203125 191.144531 C 309.363281 192.660156 310.542969 193.867188 308.03125 194.765625 C 306.285156 194.46875 306.453125 196.085938 304.40625 195.488281 C 294.996094 212.394531 279.589844 219.160156 281.222656 243.289062 C 289.476562 250.25 297.265625 257.671875 306.582031 263.570312 C 298.835938 268.707031 292.046875 258.367188 285.570312 254.152344 C 281.046875 262.675781 284.246094 272.464844 289.917969 283.847656 C 300.191406 270.609375 322.117188 276.496094 331.214844 288.191406 C 333.035156 286.394531 337.109375 286.84375 338.460938 284.570312 C 334.984375 270.71875 346.878906 258.003906 360.921875 260.671875 C 368.808594 262.167969 375.667969 269.40625 379.757812 272.257812 C 387.890625 261.121094 393.847656 251.332031 401.496094 240.394531 C 401.835938 237.878906 397.5625 239.976562 397.148438 238.21875 C 403.394531 232.292969 410.601562 231.125 412.363281 221.5625 C 404.523438 211.445312 400.125 201.601562 392.800781 190.417969 Z M 418.160156 267.914062 C 429.597656 263.726562 433.738281 253.113281 437.722656 241.117188 C 439.929688 234.464844 440.09375 219.652344 431.925781 216.492188 C 418.054688 211.128906 408.148438 233.644531 410.1875 244.015625 C 407.574219 247.066406 402.328125 248.894531 399.320312 252.703125 C 396.644531 256.097656 394.421875 262.339844 391.351562 267.191406 C 387.839844 272.734375 383.125 277.878906 382.65625 281.675781 C 382.144531 285.789062 384.785156 289.847656 384.105469 293.988281 C 383.414062 298.214844 380.4375 299.414062 380.484375 303.402344 C 371.617188 309.511719 364.804688 312.78125 355.847656 309.195312 C 348.035156 306.070312 344.214844 296.636719 336.285156 293.988281 C 333.945312 298.933594 336.921875 302.4375 337.734375 306.300781 C 339.488281 314.625 336.726562 320.914062 342.082031 328.75 C 350.027344 324.582031 348.46875 314.386719 355.125 309.921875 C 355.335938 311.398438 357.085938 311.339844 357.296875 312.816406 C 356.308594 321.117188 350.859375 327.691406 345.707031 333.820312 C 360.003906 344.640625 384.628906 346.863281 403.667969 336.71875 C 418.519531 322.035156 422.21875 297.136719 416.710938 272.984375 C 414.542969 272.011719 411.679688 271.734375 411.636719 268.636719 C 412.984375 265.582031 415.355469 267.246094 418.160156 267.914062 Z M 347.878906 270.8125 C 335.53125 285.933594 356.449219 313.082031 374.6875 299.058594 C 383.324219 279.394531 359.878906 260.707031 347.878906 270.8125 Z M 298.609375 285.296875 C 297.703125 289.417969 295.160156 290.867188 294.988281 293.988281 C 294.96875 294.34375 296.414062 301.167969 296.4375 301.230469 C 301.890625 315.523438 329.152344 319.375 328.316406 301.953125 C 328.007812 295.503906 322.886719 293.136719 320.347656 287.46875 C 312.007812 284.027344 307.484375 283.066406 298.609375 285.296875 Z M 557.269531 304.851562 C 550.695312 303.011719 542.449219 299.964844 537.707031 304.851562 C 528.246094 324.820312 514.738281 345.128906 494.960938 356.996094 C 490.195312 353.242188 493.859375 350.300781 492.785156 346.859375 C 488.429688 332.898438 464.59375 319.992188 455.109375 328.027344 C 462.984375 330.621094 472.109375 334.550781 478.292969 342.511719 C 486.683594 353.308594 482.097656 361.511719 470.324219 370.035156 C 468.082031 370.691406 466.335938 371.839844 464.527344 372.929688 C 465.164062 382.503906 457.335938 389.21875 448.589844 391.761719 C 440.917969 385.539062 434.769531 392.285156 426.128906 385.96875 C 419.273438 388.914062 412.546875 381.894531 411.636719 375.101562 C 401.082031 378.1875 387.445312 404.042969 376.136719 397.554688 C 374.015625 396.339844 373.972656 393.488281 374.6875 390.3125 C 377.675781 377.058594 401.003906 353.945312 413.085938 350.480469 C 415.125 348.964844 412.96875 347.757812 415.261719 346.859375 C 421.519531 343.457031 428.410156 340.6875 434.097656 336.71875 C 434.84375 328.714844 442.347656 325.304688 442.792969 317.164062 C 436.785156 314.953125 432.320312 312.53125 424.679688 312.816406 C 419.246094 324.414062 411.464844 338.960938 399.320312 345.410156 C 395.425781 347.476562 390.421875 347.535156 385.554688 348.304688 C 361.875 352.058594 337.519531 340.507812 316 322.234375 C 309.515625 322.828125 306.976562 319.199219 300.058594 318.613281 C 298.949219 327.453125 292.222656 332.757812 292.089844 340.339844 C 300.953125 345.183594 319.570312 340.242188 316 354.101562 C 307.105469 366.09375 292.652344 365.480469 281.222656 356.996094 C 271.84375 367.285156 264.984375 384.105469 252.964844 391.761719 C 244.648438 405.417969 230.542969 413.285156 221.808594 426.523438 C 246.996094 436.660156 289.824219 428.378906 316 425.800781 C 337.210938 427.777344 358.824219 428.105469 379.035156 442.457031 C 386.109375 425.460938 397.175781 409.003906 407.289062 388.863281 C 409.664062 388.246094 410.714844 383.578125 413.085938 385.242188 C 405.617188 405.785156 393.71875 419.65625 386.277344 438.835938 C 395.328125 433.324219 402.976562 427.609375 411.636719 425.800781 C 430.613281 421.835938 448.148438 428.820312 470.324219 434.492188 C 494.070312 440.566406 518.8125 445.265625 541.328125 435.941406 C 542.648438 432.882812 543.316406 431.515625 543.503906 428.699219 C 544.925781 428.914062 544.941406 427.71875 545.675781 427.25 C 546.09375 420.730469 550.46875 416.949219 553.644531 410.589844 C 555.515625 406.847656 555.457031 402.335938 557.269531 398.277344 C 559.238281 393.875 563.144531 389.988281 565.238281 385.242188 C 571.515625 371.023438 578.386719 357.167969 583.351562 343.234375 C 584.191406 340.886719 586.683594 339.042969 587.699219 336.71875 C 588.125 335.742188 587.332031 334.050781 587.699219 333.097656 C 588.667969 330.570312 591.496094 328.613281 592.769531 325.855469 C 597.324219 315.996094 602.574219 303.835938 606.535156 295.4375 C 607.648438 295.261719 606.644531 294.242188 605.8125 293.988281 C 592.21875 301.960938 572.527344 302.121094 557.269531 304.851562 Z M 591.320312 334.546875 C 587.679688 348.203125 583.128906 349.433594 579.003906 364.238281 C 571.359375 380.628906 561.226562 397.207031 554.371094 414.9375 C 553.691406 416.691406 554.34375 418.859375 553.644531 420.730469 C 551.558594 426.316406 546.835938 431.421875 545.675781 435.941406 C 544.3125 441.253906 546.085938 448.726562 548.574219 453.324219 C 552.574219 439.09375 559.210938 432.347656 563.789062 417.835938 C 568.734375 410.398438 572.617188 403.015625 576.832031 394.65625 C 581.230469 385.933594 584.121094 374.824219 590.597656 367.859375 C 588.492188 375.832031 584.296875 384.304688 580.453125 391.035156 C 579.667969 392.414062 579.980469 395.730469 579.003906 398.277344 C 575.316406 407.90625 567.285156 418.996094 562.339844 430.144531 C 556.921875 442.367188 548.09375 454.417969 550.023438 463.460938 C 563.050781 437.390625 577.1875 406.132812 593.496094 379.449219 C 595.734375 383.503906 591.058594 383.359375 591.320312 388.863281 C 588.074219 389.574219 589.34375 392.839844 588.421875 394.65625 C 577.734375 415.769531 567.773438 433.933594 556.542969 458.390625 C 552.320312 463.816406 551.546875 466.738281 550.023438 475.050781 C 553.996094 470.375 556.414062 464.65625 559.441406 458.390625 C 564.839844 447.226562 571.066406 437.78125 576.832031 426.523438 C 581.40625 417.597656 582.035156 404.765625 590.597656 399.003906 C 588.109375 406.289062 584.003906 412.789062 581.179688 419.28125 C 580.222656 421.480469 580.699219 424.265625 579.730469 426.523438 C 572.8125 442.597656 560.765625 456.6875 555.820312 475.050781 C 553.492188 477.546875 551.144531 482.21875 552.921875 484.464844 C 557.957031 479.773438 557.722656 473.195312 560.890625 467.082031 C 562.804688 463.390625 566.960938 460.609375 568.136719 457.667969 C 568.539062 456.664062 567.640625 455 568.136719 454.046875 C 568.839844 452.699219 571.28125 452.015625 571.757812 450.425781 C 573.03125 446.210938 573.25 444.355469 574.65625 441.734375 C 576.96875 437.433594 578.308594 433.261719 580.453125 428.699219 C 589.078125 410.34375 596.574219 397.703125 607.261719 377.277344 C 610.414062 371.253906 615 363.882812 615.957031 357.722656 C 605.523438 343.984375 608.121094 316.015625 605.8125 305.574219 C 599.90625 317.324219 598.953125 324.832031 591.320312 334.546875 Z M 323.246094 321.507812 C 327.140625 323.515625 331.574219 328.484375 335.5625 328.027344 C 334.007812 320.453125 336.214844 316.507812 332.664062 310.644531 C 331.867188 316.613281 325.105469 316.605469 323.246094 321.507812 Z M 439.171875 334.546875 C 449.234375 329.464844 459.519531 321.324219 462.355469 311.371094 C 450.066406 310.78125 441.554688 325.746094 439.171875 334.546875 Z M 478.292969 356.273438 C 478.316406 353.121094 479.058594 348.476562 477.570312 346.859375 C 470.566406 339.21875 459.507812 331.207031 450.761719 333.097656 C 445.746094 334.179688 438.261719 340.128906 434.097656 342.511719 C 425.648438 347.351562 417.84375 351.207031 410.914062 356.273438 C 405.539062 360.203125 400.152344 364.203125 397.148438 366.414062 C 392.941406 369.503906 387.765625 377.027344 385.554688 380.171875 C 386.644531 382.222656 388.746094 383.257812 389.175781 385.96875 C 387.097656 388.957031 383.050781 389.984375 381.207031 393.210938 C 390.203125 389.617188 398.71875 381.003906 406.566406 374.378906 C 409.433594 371.957031 413.289062 368.234375 415.261719 365.6875 C 418.324219 361.726562 420.078125 352.800781 426.851562 356.273438 C 418.34375 362.226562 411.882812 381.402344 424.679688 381.621094 C 423.769531 370.328125 428.730469 361.050781 436.273438 360.617188 C 429.933594 369.222656 422.96875 382.128906 436.996094 384.519531 C 437.476562 377.09375 437.804688 366.28125 447.140625 362.066406 C 447.328125 369.011719 438.695312 377.140625 441.34375 382.347656 C 446.097656 391.691406 460.867188 383.34375 460.90625 374.378906 C 456.363281 372.589844 454.753906 380.605469 450.039062 377.277344 C 456.878906 368.613281 470.757812 365.976562 478.292969 356.273438 Z M 268.179688 337.441406 C 264.300781 339.828125 264.046875 344.601562 258.035156 346.132812 C 251.371094 356.871094 246.917969 373.183594 253.691406 385.242188 C 264.492188 377.8125 259.542969 361.917969 270.355469 354.101562 C 279.421875 343.460938 299.730469 369.285156 310.203125 351.203125 C 306 349.464844 303.453125 353.554688 300.785156 354.101562 C 300.476562 352.71875 298.714844 352.789062 299.335938 350.480469 C 301.847656 350.15625 306.425781 350.5625 308.03125 346.132812 C 291.117188 353.3125 284.917969 327.15625 268.179688 337.441406 Z M 267.457031 369.308594 C 268.476562 364.082031 277.65625 360 274.699219 355.546875 C 270.796875 358.699219 263.871094 365.210938 267.457031 369.308594 Z M 380.484375 388.140625 C 383.550781 388.3125 384.773438 386.636719 385.554688 384.519531 C 384.171875 384.210938 384.242188 382.449219 381.933594 383.070312 C 380.367188 385.171875 380.960938 384.945312 380.484375 388.140625 Z M 380.484375 388.140625 " fill-opacity="1" fill-rule="evenodd"/></g><path fill="#000000" d="M 326.144531 239.667969 C 318.808594 230.40625 322.773438 215.863281 328.316406 204.179688 C 332.558594 195.238281 339.769531 183.546875 348.601562 183.902344 C 349.445312 187.082031 346.273438 190.769531 342.808594 191.867188 C 333.882812 205.6875 325.15625 219.445312 326.144531 239.667969 Z M 326.144531 239.667969 " fill-opacity="1" fill-rule="evenodd"/><path fill="#000000" d="M 355.125 186.796875 C 354.738281 190.273438 353.535156 192.933594 350.050781 193.316406 C 342.101562 207.472656 332.492188 219.6875 332.664062 235.324219 C 332.703125 239.019531 337.226562 245.6875 331.9375 249.082031 C 323.367188 234.257812 330.328125 211.609375 339.910156 198.386719 C 343.964844 192.792969 349.964844 187.378906 355.125 186.796875 Z M 355.125 186.796875 " fill-opacity="1" fill-rule="evenodd"/><path fill="#000000" d="M 387.726562 207.800781 C 386.070312 212.074219 381.097656 216.34375 376.859375 220.113281 C 376.121094 221.066406 376.148438 222.785156 375.410156 223.734375 C 368.433594 227.011719 366.808594 239.125 359.472656 239.667969 C 362.246094 226.457031 375.816406 217.902344 383.382812 207.078125 C 385.164062 206.980469 386.875 206.96875 387.726562 207.800781 Z M 387.726562 207.800781 " fill-opacity="1" fill-rule="evenodd"/><path fill="#000000" d="M 393.523438 209.972656 C 394.957031 210.476562 395.457031 211.90625 395.699219 213.59375 C 389.476562 217.757812 385.828125 224.492188 379.757812 228.804688 C 379.203125 234.578125 374.828125 240.746094 371.0625 238.945312 C 373.847656 227.460938 384.105469 217.234375 393.523438 209.972656 Z M 393.523438 209.972656 " fill-opacity="1" fill-rule="evenodd"/><path fill="#000000" d="M 401.496094 215.769531 C 398.542969 220.304688 394.546875 223.792969 389.902344 226.632812 C 387.359375 229.644531 386.222656 234.0625 381.933594 235.324219 C 382.800781 226.011719 392.414062 219.273438 401.496094 215.769531 Z M 401.496094 215.769531 " fill-opacity="1" fill-rule="evenodd"/><path fill="#ffffff" d="M 411.636719 268.636719 C 411.679688 271.734375 414.542969 272.011719 416.710938 272.984375 C 422.21875 297.136719 418.519531 322.035156 403.667969 336.71875 C 384.628906 346.863281 360.003906 344.640625 345.707031 333.820312 C 350.859375 327.691406 356.308594 321.117188 357.296875 312.816406 C 357.085938 311.339844 355.335938 311.398438 355.125 309.921875 C 348.46875 314.386719 350.027344 324.582031 342.082031 328.75 C 336.726562 320.914062 339.488281 314.625 337.734375 306.300781 C 336.921875 302.4375 333.945312 298.933594 336.285156 293.988281 C 344.214844 296.636719 348.035156 306.070312 355.847656 309.195312 C 364.804688 312.78125 371.617188 309.511719 380.484375 303.402344 C 380.4375 299.414062 383.414062 298.214844 384.105469 293.988281 C 384.785156 289.847656 382.144531 285.789062 382.65625 281.675781 C 383.125 277.878906 387.839844 272.734375 391.351562 267.191406 C 394.421875 262.339844 396.644531 256.097656 399.320312 252.703125 C 402.328125 248.894531 407.574219 247.066406 410.1875 244.015625 C 408.148438 233.644531 418.054688 211.128906 431.925781 216.492188 C 440.09375 219.652344 439.929688 234.464844 437.722656 241.117188 C 433.738281 253.113281 429.597656 263.726562 418.160156 267.914062 C 415.355469 267.246094 412.984375 265.582031 411.636719 268.636719 Z M 412.363281 245.460938 C 414.1875 246.535156 414.515625 249.105469 418.160156 248.359375 C 421.195312 246.324219 422.359375 242.417969 426.128906 241.117188 C 430.71875 247.34375 421.59375 250.585938 418.882812 254.152344 C 417.925781 253.902344 415.246094 252.984375 413.085938 251.980469 C 410.449219 256.558594 415.628906 258.914062 418.882812 259.949219 C 426.613281 254.960938 433.945312 247.011719 430.476562 237.496094 C 425.3125 234.667969 421.066406 239.683594 417.433594 242.566406 C 416.339844 233.84375 422.390625 226.542969 429.027344 221.5625 C 427.53125 221.363281 428.855469 218.355469 426.851562 218.664062 C 417.914062 225.09375 412.871094 231.089844 412.363281 245.460938 Z M 368.890625 331.648438 C 370.941406 335.183594 375.992188 334.214844 376.859375 328.75 C 374.75 326.355469 370.296875 327.933594 368.890625 331.648438 Z M 368.890625 331.648438 " fill-opacity="1" fill-rule="evenodd"/><path fill="#000000" d="M 426.851562 218.664062 C 428.855469 218.355469 427.53125 221.363281 429.027344 221.5625 C 422.390625 226.542969 416.339844 233.84375 417.433594 242.566406 C 421.066406 239.683594 425.3125 234.667969 430.476562 237.496094 C 433.945312 247.011719 426.613281 254.960938 418.882812 259.949219 C 415.628906 258.914062 410.449219 256.558594 413.085938 251.980469 C 415.246094 252.984375 417.925781 253.902344 418.882812 254.152344 C 421.59375 250.585938 430.71875 247.34375 426.128906 241.117188 C 422.359375 242.417969 421.195312 246.324219 418.160156 248.359375 C 414.515625 249.105469 414.1875 246.535156 412.363281 245.460938 C 412.871094 231.089844 417.914062 225.09375 426.851562 218.664062 Z M 426.851562 218.664062 " fill-opacity="1" fill-rule="evenodd"/><path fill="#000000" d="M 405.117188 220.113281 C 405.761719 220.433594 406.414062 220.75 406.566406 221.5625 C 405.625 224.722656 403.472656 226.675781 400.046875 227.355469 C 396.347656 231.453125 391.6875 238.226562 386.277344 238.21875 C 388.199219 230.683594 397.3125 224.175781 405.117188 220.113281 Z M 405.117188 220.113281 " fill-opacity="1" fill-rule="evenodd"/><path fill="#000000" d="M 303.683594 229.527344 C 315.003906 235.351562 320.542969 246.957031 328.316406 256.328125 C 326.679688 256.730469 329.195312 257.457031 327.59375 258.5 C 318.265625 253.074219 309.128906 241.234375 303.683594 229.527344 Z M 303.683594 229.527344 " fill-opacity="1" fill-rule="evenodd"/><path fill="#000000" d="M 293.539062 233.148438 C 304.542969 241.277344 315.425781 249.691406 322.519531 259.949219 C 319.972656 262.636719 315.425781 258.410156 313.101562 256.328125 C 306.042969 249.996094 296.8125 239.804688 293.539062 233.148438 Z M 293.539062 233.148438 " fill-opacity="1" fill-rule="evenodd"/><path fill="#000000" d="M 289.191406 238.945312 L 291.367188 238.945312 C 296.230469 248.347656 309.929688 252.707031 313.101562 261.394531 C 301.8125 257.222656 294.066406 249.519531 289.191406 238.945312 Z M 289.191406 238.945312 " fill-opacity="1" fill-rule="evenodd"/><path fill="#ffffff" d="M 374.6875 299.058594 C 356.449219 313.082031 335.53125 285.933594 347.878906 270.8125 C 359.878906 260.707031 383.324219 279.394531 374.6875 299.058594 Z M 353.675781 295.4375 C 356.226562 296.832031 358.066406 298.265625 360.195312 298.332031 C 361.605469 295.429688 360.5 291.359375 354.398438 291.089844 C 353.566406 291.945312 353.582031 293.652344 353.675781 295.4375 Z M 353.675781 295.4375 " fill-opacity="1" fill-rule="evenodd"/><path fill="#ffffff" d="M 320.347656 287.46875 C 322.886719 293.136719 328.007812 295.503906 328.316406 301.953125 C 329.152344 319.375 301.890625 315.523438 296.4375 301.230469 C 296.414062 301.167969 294.96875 294.34375 294.988281 293.988281 C 295.160156 290.867188 297.703125 289.417969 298.609375 285.296875 C 307.484375 283.066406 312.007812 284.027344 320.347656 287.46875 Z M 323.246094 307.023438 C 324.1875 301.496094 320.296875 300.792969 316.722656 299.78125 C 314.363281 303.953125 319.160156 309.195312 323.246094 307.023438 Z M 323.246094 307.023438 " fill-opacity="1" fill-rule="evenodd"/><path fill="#000000" d="M 354.398438 291.089844 C 360.5 291.359375 361.605469 295.429688 360.195312 298.332031 C 358.066406 298.265625 356.226562 296.832031 353.675781 295.4375 C 353.582031 293.652344 353.566406 291.945312 354.398438 291.089844 Z M 354.398438 291.089844 " fill-opacity="1" fill-rule="evenodd"/><path fill="#ffffff" d="M 605.8125 293.988281 C 606.644531 294.242188 607.648438 295.261719 606.535156 295.4375 C 602.574219 303.835938 597.324219 315.996094 592.769531 325.855469 C 591.496094 328.613281 588.667969 330.570312 587.699219 333.097656 C 587.332031 334.050781 588.125 335.742188 587.699219 336.71875 C 586.683594 339.042969 584.191406 340.886719 583.351562 343.234375 C 578.386719 357.167969 571.515625 371.023438 565.238281 385.242188 C 563.144531 389.988281 559.238281 393.875 557.269531 398.277344 C 555.457031 402.335938 555.515625 406.847656 553.644531 410.589844 C 550.46875 416.949219 546.09375 420.730469 545.675781 427.25 C 544.941406 427.71875 544.925781 428.914062 543.503906 428.699219 C 543.316406 431.515625 542.648438 432.882812 541.328125 435.941406 C 518.8125 445.265625 494.070312 440.566406 470.324219 434.492188 C 448.148438 428.820312 430.613281 421.835938 411.636719 425.800781 C 402.976562 427.609375 395.328125 433.324219 386.277344 438.835938 C 393.71875 419.65625 405.617188 405.785156 413.085938 385.242188 C 410.714844 383.578125 409.664062 388.246094 407.289062 388.863281 C 397.175781 409.003906 386.109375 425.460938 379.035156 442.457031 C 358.824219 428.105469 337.210938 427.777344 316 425.800781 C 289.824219 428.378906 246.996094 436.660156 221.808594 426.523438 C 230.542969 413.285156 244.648438 405.417969 252.964844 391.761719 C 264.984375 384.105469 271.84375 367.285156 281.222656 356.996094 C 292.652344 365.480469 307.105469 366.09375 316 354.101562 C 319.570312 340.242188 300.953125 345.183594 292.089844 340.339844 C 292.222656 332.757812 298.949219 327.453125 300.058594 318.613281 C 306.976562 319.199219 309.515625 322.828125 316 322.234375 C 337.519531 340.507812 361.875 352.058594 385.554688 348.304688 C 390.421875 347.535156 395.425781 347.476562 399.320312 345.410156 C 411.464844 338.960938 419.246094 324.414062 424.679688 312.816406 C 432.320312 312.53125 436.785156 314.953125 442.792969 317.164062 C 442.347656 325.304688 434.84375 328.714844 434.097656 336.71875 C 428.410156 340.6875 421.519531 343.457031 415.261719 346.859375 C 412.96875 347.757812 415.125 348.964844 413.085938 350.480469 C 401.003906 353.945312 377.675781 377.058594 374.6875 390.3125 C 373.972656 393.488281 374.015625 396.339844 376.136719 397.554688 C 387.445312 404.042969 401.082031 378.1875 411.636719 375.101562 C 412.546875 381.894531 419.273438 388.914062 426.128906 385.96875 C 434.769531 392.285156 440.917969 385.539062 448.589844 391.761719 C 457.335938 389.21875 465.164062 382.503906 464.527344 372.929688 C 466.335938 371.839844 468.082031 370.691406 470.324219 370.035156 C 482.097656 361.511719 486.683594 353.308594 478.292969 342.511719 C 472.109375 334.550781 462.984375 330.621094 455.109375 328.027344 C 464.59375 319.992188 488.429688 332.898438 492.785156 346.859375 C 493.859375 350.300781 490.195312 353.242188 494.960938 356.996094 C 514.738281 345.128906 528.246094 324.820312 537.707031 304.851562 C 542.449219 299.964844 550.695312 303.011719 557.269531 304.851562 C 572.527344 302.121094 592.21875 301.960938 605.8125 293.988281 Z M 605.8125 293.988281 " fill-opacity="1" fill-rule="evenodd"/><path fill="#000000" d="M 316.722656 299.78125 C 320.296875 300.792969 324.1875 301.496094 323.246094 307.023438 C 319.160156 309.195312 314.363281 303.953125 316.722656 299.78125 Z M 316.722656 299.78125 " fill-opacity="1" fill-rule="evenodd"/><path fill="#ffffff" d="M 605.8125 305.574219 C 608.121094 316.015625 605.523438 343.984375 615.957031 357.722656 C 615 363.882812 610.414062 371.253906 607.261719 377.277344 C 596.574219 397.703125 589.078125 410.34375 580.453125 428.699219 C 578.308594 433.261719 576.96875 437.433594 574.65625 441.734375 C 573.25 444.355469 573.03125 446.210938 571.757812 450.425781 C 571.28125 452.015625 568.839844 452.699219 568.136719 454.046875 C 567.640625 455 568.539062 456.664062 568.136719 457.667969 C 566.960938 460.609375 562.804688 463.390625 560.890625 467.082031 C 557.722656 473.195312 557.957031 479.773438 552.921875 484.464844 C 551.144531 482.21875 553.492188 477.546875 555.820312 475.050781 C 560.765625 456.6875 572.8125 442.597656 579.730469 426.523438 C 580.699219 424.265625 580.222656 421.480469 581.179688 419.28125 C 584.003906 412.789062 588.109375 406.289062 590.597656 399.003906 C 582.035156 404.765625 581.40625 417.597656 576.832031 426.523438 C 571.066406 437.78125 564.839844 447.226562 559.441406 458.390625 C 556.414062 464.65625 553.996094 470.375 550.023438 475.050781 C 551.546875 466.738281 552.320312 463.816406 556.542969 458.390625 C 567.773438 433.933594 577.734375 415.769531 588.421875 394.65625 C 589.34375 392.839844 588.074219 389.574219 591.320312 388.863281 C 591.058594 383.359375 595.734375 383.503906 593.496094 379.449219 C 577.1875 406.132812 563.050781 437.390625 550.023438 463.460938 C 548.09375 454.417969 556.921875 442.367188 562.339844 430.144531 C 567.285156 418.996094 575.316406 407.90625 579.003906 398.277344 C 579.980469 395.730469 579.667969 392.414062 580.453125 391.035156 C 584.296875 384.304688 588.492188 375.832031 590.597656 367.859375 C 584.121094 374.824219 581.230469 385.933594 576.832031 394.65625 C 572.617188 403.015625 568.734375 410.398438 563.789062 417.835938 C 559.210938 432.347656 552.574219 439.09375 548.574219 453.324219 C 546.085938 448.726562 544.3125 441.253906 545.675781 435.941406 C 546.835938 431.421875 551.558594 426.316406 553.644531 420.730469 C 554.34375 418.859375 553.691406 416.691406 554.371094 414.9375 C 561.226562 397.207031 571.359375 380.628906 579.003906 364.238281 C 583.128906 349.433594 587.679688 348.203125 591.320312 334.546875 C 598.953125 324.832031 599.90625 317.324219 605.8125 305.574219 Z M 589.148438 352.652344 C 583.539062 357.960938 582.71875 365.742188 579.730469 372.207031 C 574.210938 384.140625 566.882812 397.28125 562.339844 408.417969 C 561.238281 411.121094 558.480469 412.964844 557.269531 415.660156 C 553.578125 423.882812 550.992188 432.625 549.300781 440.285156 C 567.257812 409.378906 582.410156 369.652344 597.117188 341.0625 C 591.539062 342.003906 590.808594 347.792969 589.148438 352.652344 Z M 589.148438 352.652344 " fill-opacity="1" fill-rule="evenodd"/><path fill="#ffffff" d="M 332.664062 310.644531 C 336.214844 316.507812 334.007812 320.453125 335.5625 328.027344 C 331.574219 328.484375 327.140625 323.515625 323.246094 321.507812 C 325.105469 316.605469 331.867188 316.613281 332.664062 310.644531 Z M 332.664062 310.644531 " fill-opacity="1" fill-rule="evenodd"/><path fill="#ffffff" d="M 462.355469 311.371094 C 459.519531 321.324219 449.234375 329.464844 439.171875 334.546875 C 441.554688 325.746094 450.066406 310.78125 462.355469 311.371094 Z M 462.355469 311.371094 " fill-opacity="1" fill-rule="evenodd"/><path fill="#000000" d="M 376.859375 328.75 C 375.992188 334.214844 370.941406 335.183594 368.890625 331.648438 C 370.296875 327.933594 374.75 326.355469 376.859375 328.75 Z M 376.859375 328.75 " fill-opacity="1" fill-rule="evenodd"/><path fill="#ffffff" d="M 450.039062 377.277344 C 454.753906 380.605469 456.363281 372.589844 460.90625 374.378906 C 460.867188 383.34375 446.097656 391.691406 441.34375 382.347656 C 438.695312 377.140625 447.328125 369.011719 447.140625 362.066406 C 437.804688 366.28125 437.476562 377.09375 436.996094 384.519531 C 422.96875 382.128906 429.933594 369.222656 436.273438 360.617188 C 428.730469 361.050781 423.769531 370.328125 424.679688 381.621094 C 411.882812 381.402344 418.34375 362.226562 426.851562 356.273438 C 420.078125 352.800781 418.324219 361.726562 415.261719 365.6875 C 413.289062 368.234375 409.433594 371.957031 406.566406 374.378906 C 398.71875 381.003906 390.203125 389.617188 381.207031 393.210938 C 383.050781 389.984375 387.097656 388.957031 389.175781 385.96875 C 388.746094 383.257812 386.644531 382.222656 385.554688 380.171875 C 387.765625 377.027344 392.941406 369.503906 397.148438 366.414062 C 400.152344 364.203125 405.539062 360.203125 410.914062 356.273438 C 417.84375 351.207031 425.648438 347.351562 434.097656 342.511719 C 438.261719 340.128906 445.746094 334.179688 450.761719 333.097656 C 459.507812 331.207031 470.566406 339.21875 477.570312 346.859375 C 479.058594 348.476562 478.316406 353.121094 478.292969 356.273438 C 470.757812 365.976562 456.878906 368.613281 450.039062 377.277344 Z M 450.039062 377.277344 " fill-opacity="1" fill-rule="evenodd"/><path fill="#ffffff" d="M 308.03125 346.132812 C 306.425781 350.5625 301.847656 350.15625 299.335938 350.480469 C 298.714844 352.789062 300.476562 352.71875 300.785156 354.101562 C 303.453125 353.554688 306 349.464844 310.203125 351.203125 C 299.730469 369.285156 279.421875 343.460938 270.355469 354.101562 C 259.542969 361.917969 264.492188 377.8125 253.691406 385.242188 C 246.917969 373.183594 251.371094 356.871094 258.035156 346.132812 C 264.046875 344.601562 264.300781 339.828125 268.179688 337.441406 C 284.917969 327.15625 291.117188 353.3125 308.03125 346.132812 Z M 308.03125 346.132812 " fill-opacity="1" fill-rule="evenodd"/><path fill="#000000" d="M 597.117188 341.0625 C 582.410156 369.652344 567.257812 409.378906 549.300781 440.285156 C 550.992188 432.625 553.578125 423.882812 557.269531 415.660156 C 558.480469 412.964844 561.238281 411.121094 562.339844 408.417969 C 566.882812 397.28125 574.210938 384.140625 579.730469 372.207031 C 582.71875 365.742188 583.539062 357.960938 589.148438 352.652344 C 590.808594 347.792969 591.539062 342.003906 597.117188 341.0625 Z M 597.117188 341.0625 " fill-opacity="1" fill-rule="evenodd"/><path fill="#ffffff" d="M 274.699219 355.546875 C 277.65625 360 268.476562 364.082031 267.457031 369.308594 C 263.871094 365.210938 270.796875 358.699219 274.699219 355.546875 Z M 274.699219 355.546875 " fill-opacity="1" fill-rule="evenodd"/><path fill="#ffffff" d="M 381.933594 383.070312 C 384.242188 382.449219 384.171875 384.210938 385.554688 384.519531 C 384.773438 386.636719 383.550781 388.3125 380.484375 388.140625 C 380.960938 384.945312 380.367188 385.171875 381.933594 383.070312 Z M 381.933594 383.070312 " fill-opacity="1" fill-rule="evenodd"/><path fill="#000000" d="M 506.550781 454.046875 C 501.632812 457.609375 493.574219 456.308594 487.714844 456.21875 C 454.796875 455.707031 428.210938 438.03125 396.421875 452.597656 C 400.390625 446.335938 409.398438 444.578125 414.535156 443.90625 C 437.941406 440.859375 460.964844 450.046875 483.367188 451.148438 C 487.574219 451.355469 491 452.597656 494.960938 453.324219 C 498.632812 453.996094 503.40625 450.546875 506.550781 454.046875 Z M 506.550781 454.046875 " fill-opacity="1" fill-rule="evenodd"/><path fill="#000000" d="M 473.949219 468.53125 C 448.445312 464.808594 423.007812 459.144531 395.699219 465.632812 C 401.300781 457.707031 410.769531 460.464844 416.710938 457.667969 C 434.597656 458.734375 457.457031 458.753906 473.949219 468.53125 Z M 473.949219 468.53125 " fill-opacity="1" fill-rule="evenodd"/><path fill="#ffffff" d="M 412.363281 221.5625 C 410.601562 231.125 403.394531 232.292969 397.148438 238.21875 C 397.5625 239.976562 401.835938 237.878906 401.496094 240.394531 C 393.847656 251.332031 387.890625 261.121094 379.757812 272.257812 C 375.667969 269.40625 368.808594 262.167969 360.921875 260.671875 C 346.878906 258.003906 334.984375 270.71875 338.460938 284.570312 C 337.109375 286.84375 333.035156 286.394531 331.214844 288.191406 C 322.117188 276.496094 300.191406 270.609375 289.917969 283.847656 C 284.246094 272.464844 281.046875 262.675781 285.570312 254.152344 C 292.046875 258.367188 298.835938 268.707031 306.582031 263.570312 C 297.265625 257.671875 289.476562 250.25 281.222656 243.289062 C 279.589844 219.160156 294.996094 212.394531 304.40625 195.488281 C 306.453125 196.085938 306.285156 194.46875 308.03125 194.765625 C 310.542969 193.867188 309.363281 192.660156 310.203125 191.144531 C 328.125 178.25 348.300781 178.332031 371.789062 181.726562 C 379.3125 182.816406 386.53125 185.988281 392.800781 190.417969 C 400.125 201.601562 404.523438 211.445312 412.363281 221.5625 Z M 339.910156 198.386719 C 330.328125 211.609375 323.367188 234.257812 331.9375 249.082031 C 337.226562 245.6875 332.703125 239.019531 332.664062 235.324219 C 332.492188 219.6875 342.101562 207.472656 350.050781 193.316406 C 353.535156 192.933594 354.738281 190.273438 355.125 186.796875 C 349.964844 187.378906 343.964844 192.792969 339.910156 198.386719 Z M 342.808594 191.867188 C 346.273438 190.769531 349.445312 187.082031 348.601562 183.902344 C 339.769531 183.546875 332.558594 195.238281 328.316406 204.179688 C 322.773438 215.863281 318.808594 230.40625 326.144531 239.667969 C 325.15625 219.445312 333.882812 205.6875 342.808594 191.867188 Z M 383.382812 207.078125 C 375.816406 217.902344 362.246094 226.457031 359.472656 239.667969 C 366.808594 239.125 368.433594 227.011719 375.410156 223.734375 C 376.148438 222.785156 376.121094 221.066406 376.859375 220.113281 C 381.097656 216.34375 386.070312 212.074219 387.726562 207.800781 C 386.875 206.96875 385.164062 206.980469 383.382812 207.078125 Z M 371.0625 238.945312 C 374.828125 240.746094 379.203125 234.578125 379.757812 228.804688 C 385.828125 224.492188 389.476562 217.757812 395.699219 213.59375 C 395.457031 211.90625 394.957031 210.476562 393.523438 209.972656 C 384.105469 217.234375 373.847656 227.460938 371.0625 238.945312 Z M 381.933594 235.324219 C 386.222656 234.0625 387.359375 229.644531 389.902344 226.632812 C 394.546875 223.792969 398.542969 220.304688 401.496094 215.769531 C 392.414062 219.273438 382.800781 226.011719 381.933594 235.324219 Z M 386.277344 238.21875 C 391.6875 238.226562 396.347656 231.453125 400.046875 227.355469 C 403.472656 226.675781 405.625 224.722656 406.566406 221.5625 C 406.414062 220.75 405.761719 220.433594 405.117188 220.113281 C 397.3125 224.175781 388.199219 230.683594 386.277344 238.21875 Z M 327.59375 258.5 C 329.195312 257.457031 326.679688 256.730469 328.316406 256.328125 C 320.542969 246.957031 315.003906 235.351562 303.683594 229.527344 C 309.128906 241.234375 318.265625 253.074219 327.59375 258.5 Z M 313.101562 256.328125 C 315.425781 258.410156 319.972656 262.636719 322.519531 259.949219 C 315.425781 249.691406 304.542969 241.277344 293.539062 233.148438 C 296.8125 239.804688 306.042969 249.996094 313.101562 256.328125 Z M 313.101562 261.394531 C 309.929688 252.707031 296.230469 248.347656 291.367188 238.945312 L 289.191406 238.945312 C 294.066406 249.519531 301.8125 257.222656 313.101562 261.394531 Z M 313.101562 261.394531 " fill-opacity="1" fill-rule="evenodd"/><g clip-path="url(#6f3ad3fe59)"><g clip-path="url(#3f020652e1)"><g clip-path="url(#878e92abcc)"><g clip-path="url(#a53319178a)"><path fill="#000000" d="M 176.5 209.351562 C 175.734375 206.269531 173.855469 203.128906 171.160156 199.542969 C 169.242188 196.992188 163.804688 191.898438 154.960938 183.621094 L 152.792969 181.59375 C 150.089844 179.0625 148.285156 176.242188 146.746094 173.847656 C 146.40625 173.320312 146.078125 172.816406 145.757812 172.332031 C 141.515625 165.949219 138.449219 157.851562 138.050781 147.8125 C 137.09375 123.664062 149.519531 108.203125 174.0625 102.9375 C 200.425781 97.277344 219.550781 104.554688 228.375 124.914062 C 231.804688 132.824219 231.507812 140.734375 229.871094 147.753906 C 229.039062 151.328125 228.238281 154.234375 227.113281 156.082031 C 219.300781 168.910156 215.546875 175.753906 215.445312 177.316406 C 215.4375 177.421875 215.414062 177.523438 215.382812 177.621094 C 213.425781 183.15625 212.007812 192.765625 212.167969 202.78125 C 212.179688 203.414062 211.675781 203.933594 211.046875 203.945312 C 210.414062 203.953125 209.894531 203.449219 209.882812 202.820312 C 209.71875 192.628906 211.152344 182.726562 213.226562 176.859375 L 213.164062 177.164062 C 213.3125 174.871094 217.601562 167.308594 225.160156 154.890625 C 226.0625 153.410156 226.796875 150.878906 227.644531 147.234375 C 229.210938 140.519531 229.453125 133.144531 226.277344 125.824219 C 218.027344 106.789062 200.234375 99.660156 174.542969 105.171875 C 151.019531 110.21875 139.421875 124.753906 140.335938 147.722656 C 140.714844 157.324219 143.640625 165.015625 147.660156 171.0625 C 147.992188 171.5625 148.328125 172.085938 148.667969 172.613281 C 150.214844 175.023438 151.886719 177.609375 154.351562 179.921875 L 156.519531 181.949219 C 165.25 190.121094 170.910156 195.410156 172.984375 198.167969 C 175.726562 201.816406 177.839844 205.257812 178.71875 208.800781 C 178.871094 209.414062 178.5 210.035156 177.886719 210.183594 C 177.273438 210.335938 176.652344 209.964844 176.5 209.351562 Z M 176.5 209.351562 " fill-opacity="1" fill-rule="nonzero"/></g></g></g></g><g clip-path="url(#acf89a7a4f)"><g clip-path="url(#7794b01a34)"><g clip-path="url(#25ed5d8db7)"><g clip-path="url(#9e02a9d123)"><path fill="#000000" d="M 214.390625 205.984375 C 211.171875 203.960938 202.503906 203.003906 187.117188 206.570312 C 183.222656 207.472656 180.507812 208.746094 178.894531 209.964844 C 175.867188 212.257812 174.484375 214.105469 174.21875 215.355469 C 174.113281 215.851562 174.4375 216.78125 176.382812 218.3125 C 177.535156 219.21875 178.867188 219.6875 180.488281 219.742188 C 182.316406 219.804688 186.300781 219.3125 192.609375 218.199219 C 196.878906 217.445312 201.027344 216.539062 205.027344 215.289062 C 207.234375 214.597656 209.0625 213.832031 210.492188 212.929688 C 213.667969 210.921875 215.101562 209.585938 215.382812 209.09375 C 216.238281 207.59375 216.359375 207.007812 214.546875 205.972656 C 214.320312 205.84375 214.0625 205.707031 213.773438 205.570312 C 213.203125 205.300781 212.957031 204.617188 213.226562 204.046875 C 213.496094 203.476562 214.179688 203.230469 214.75 203.503906 C 215.085938 203.660156 215.394531 203.824219 215.679688 203.984375 C 218.917969 205.835938 218.644531 207.992188 217.367188 210.230469 C 216.761719 211.296875 214.804688 212.910156 211.710938 214.863281 C 210.050781 215.914062 208.011719 216.753906 205.710938 217.472656 C 201.585938 218.761719 197.332031 219.6875 193.007812 220.453125 C 186.753906 221.554688 182.523438 222.101562 180.410156 222.03125 C 178.351562 221.960938 176.542969 221.34375 174.972656 220.113281 C 173.082031 218.625 171.5625 216.867188 171.984375 214.882812 C 172.433594 212.75 174.449219 210.460938 177.519531 208.140625 C 179.464844 206.667969 182.503906 205.289062 186.601562 204.339844 C 201.984375 200.773438 211.519531 201.476562 215.605469 204.046875 C 216.136719 204.382812 216.300781 205.089844 215.964844 205.621094 C 215.628906 206.15625 214.925781 206.320312 214.390625 205.984375 Z M 214.390625 205.984375 " fill-opacity="1" fill-rule="nonzero"/></g></g></g></g><g clip-path="url(#ef5a2e6ccf)"><g clip-path="url(#4cbacc1fa8)"><g clip-path="url(#c8417849cd)"><g clip-path="url(#b8f676145e)"><path fill="#000000" d="M 176.789062 219.265625 C 176.613281 219.3125 176.445312 219.40625 176.304688 219.542969 C 173.703125 222.058594 172.265625 224.160156 171.988281 225.847656 C 171.976562 225.921875 171.972656 225.996094 171.976562 226.070312 C 172.0625 228.695312 173.464844 230.203125 176.179688 230.597656 L 176.175781 230.597656 C 178.105469 230.910156 180.34375 230.910156 182.894531 230.585938 L 182.914062 230.582031 C 195.992188 228.691406 204.136719 227.445312 207.351562 226.847656 C 208.601562 226.609375 209.753906 226.34375 210.808594 226.046875 C 215.519531 224.726562 218.289062 222.800781 219.121094 220.269531 C 219.960938 218.253906 219.941406 216.574219 219.058594 215.226562 C 218.988281 215.113281 218.894531 215.011719 218.785156 214.933594 C 215.929688 212.816406 213.863281 211.828125 212.582031 211.96875 C 212.515625 211.972656 212.457031 211.984375 212.394531 212.003906 C 211.867188 212.152344 211.507812 212.664062 211.570312 213.226562 C 211.640625 213.855469 212.203125 214.308594 212.832031 214.242188 C 213.5 214.167969 214.972656 214.96875 217.246094 216.636719 L 217.242188 216.636719 C 217.578125 217.300781 217.5 218.222656 217.003906 219.402344 C 216.988281 219.4375 216.976562 219.472656 216.964844 219.507812 C 216.410156 221.296875 214.207031 222.730469 210.363281 223.808594 C 209.335938 224.097656 208.191406 224.359375 206.929688 224.597656 C 203.75 225.191406 195.640625 226.429688 182.609375 228.316406 C 180.269531 228.613281 178.242188 228.617188 176.527344 228.335938 L 176.503906 228.332031 C 175.097656 228.128906 174.351562 227.390625 174.265625 226.117188 L 174.261719 226.117188 C 174.507812 224.9375 175.71875 223.292969 177.894531 221.1875 C 178.347656 220.75 178.359375 220.023438 177.921875 219.570312 C 177.617188 219.257812 177.179688 219.152344 176.789062 219.265625 Z M 176.789062 219.265625 " fill-opacity="1" fill-rule="nonzero"/></g></g></g></g><g clip-path="url(#d9282ff5e7)"><g clip-path="url(#58b6fb4b71)"><g clip-path="url(#a210bddada)"><g clip-path="url(#83dc1909d7)"><path fill="#000000" d="M 215.90625 223.304688 C 216.628906 226.378906 214.914062 229.035156 211.472656 230.917969 C 208.207031 232.703125 201.9375 234.078125 193.160156 235.613281 C 188.011719 236.515625 186.355469 236.316406 183.519531 235.289062 C 181.511719 234.5625 179.304688 233.71875 178.257812 230.738281 C 178.050781 230.140625 178.363281 229.488281 178.957031 229.28125 C 179.554688 229.070312 180.203125 229.382812 180.414062 229.980469 C 181.082031 231.882812 182.320312 232.425781 184.296875 233.140625 C 186.644531 233.988281 187.875 234.21875 192.765625 233.359375 C 201.667969 231.800781 207.511719 230.476562 210.378906 228.910156 C 213.335938 227.292969 214.074219 225.496094 213.683594 223.828125 C 213.539062 223.214844 213.917969 222.597656 214.53125 222.453125 C 215.148438 222.308594 215.761719 222.691406 215.90625 223.304688 Z M 215.90625 223.304688 " fill-opacity="1" fill-rule="nonzero"/></g></g></g></g><g clip-path="url(#ada88954a8)"><g clip-path="url(#3e5bcdfb92)"><g clip-path="url(#2eff2a4442)"><g clip-path="url(#a53f4eb339)"><path fill="#000000" d="M 191.210938 234.800781 C 191.042969 234.847656 190.882812 234.933594 190.746094 235.0625 C 190.28125 235.492188 190.253906 236.214844 190.683594 236.679688 C 194.5 240.800781 198.109375 242.472656 201.519531 241.699219 L 201.546875 241.695312 C 201.617188 241.675781 201.683594 241.660156 201.75 241.640625 C 203.34375 241.191406 204.589844 240.308594 205.484375 238.984375 L 205.484375 238.988281 C 206.101562 238.171875 206.589844 237.40625 206.945312 236.691406 C 207.332031 235.933594 207.769531 234.902344 208.257812 233.601562 L 208.253906 233.601562 C 208.398438 233.28125 208.5625 232.992188 208.742188 232.734375 L 208.765625 232.699219 C 209.128906 232.183594 209.007812 231.46875 208.492188 231.105469 C 208.195312 230.894531 207.832031 230.847656 207.511719 230.933594 C 207.277344 231 207.070312 231.140625 206.925781 231.34375 L 206.898438 231.378906 C 206.625 231.765625 206.382812 232.195312 206.167969 232.660156 C 206.160156 232.6875 206.148438 232.710938 206.140625 232.734375 C 205.671875 233.984375 205.261719 234.957031 204.90625 235.652344 L 204.902344 235.664062 C 204.609375 236.253906 204.199219 236.898438 203.660156 237.605469 C 203.648438 237.625 203.632812 237.644531 203.617188 237.664062 C 203.035156 238.542969 202.203125 239.136719 201.121094 239.4375 C 201.082031 239.449219 201.042969 239.460938 201.003906 239.472656 C 198.453125 240.042969 195.570312 238.59375 192.359375 235.125 C 192.058594 234.796875 191.613281 234.6875 191.210938 234.800781 Z M 191.210938 234.800781 " fill-opacity="1" fill-rule="nonzero"/></g></g></g></g><g clip-path="url(#e76657f648)"><g clip-path="url(#5f93e08816)"><g clip-path="url(#59f8ca5dfc)"><g clip-path="url(#41a5eb8ffa)"><path fill="#000000" d="M 185.285156 205.277344 C 184.402344 194.78125 182.878906 188.101562 181.113281 184.875 C 180 182.835938 178.257812 179.894531 175.585938 176.191406 L 175.636719 176.257812 L 162.199219 160.234375 C 162.164062 160.195312 162.136719 160.152344 162.105469 160.109375 C 160.464844 157.488281 159.511719 154.460938 159.542969 151.042969 C 159.613281 143.65625 162.996094 139.195312 169.640625 139.265625 C 170.023438 139.269531 170.417969 139.289062 170.824219 139.320312 C 174.867188 139.667969 178.285156 141.425781 180.480469 144.429688 C 183.167969 148.113281 183.445312 151.703125 181.042969 154.335938 C 180.933594 154.457031 180.796875 154.554688 180.648438 154.617188 C 178.046875 155.726562 175.894531 154.605469 174.59375 151.953125 C 173.175781 149.058594 172.625 145.847656 173.144531 142.460938 C 173.960938 137.15625 178.140625 134.066406 184.6875 133.660156 C 190.261719 133.316406 194.1875 135.671875 196.445312 139.804688 C 197.636719 141.988281 197.792969 144.746094 196.878906 148.0625 C 196.304688 150.140625 195.117188 152.574219 192.84375 151.945312 C 192.589844 151.875 192.347656 151.765625 192.125 151.632812 C 189.449219 150.039062 189.214844 146.621094 190.367188 142.746094 C 191.230469 139.84375 193.753906 137.128906 198.003906 135.988281 C 204.558594 134.226562 209.535156 137.898438 211.4375 144.980469 C 211.460938 145.070312 211.484375 145.15625 211.507812 145.246094 C 212.398438 148.730469 211.992188 152.417969 210.394531 155.609375 C 204.0625 168.253906 200.699219 175.578125 200.175781 178.21875 C 198.542969 186.46875 197.546875 194.058594 198.128906 203.011719 C 198.167969 203.640625 197.691406 204.1875 197.0625 204.226562 C 196.433594 204.265625 195.886719 203.789062 195.847656 203.160156 C 195.246094 193.929688 196.285156 186.121094 197.933594 177.773438 C 198.535156 174.746094 202.105469 167.054688 208.351562 154.582031 C 209.703125 151.882812 210.046875 148.761719 209.292969 145.808594 C 209.273438 145.730469 209.253906 145.652344 209.230469 145.574219 C 207.566406 139.378906 203.625 136.84375 198.597656 138.195312 C 195.039062 139.152344 193.171875 141.328125 192.558594 143.402344 C 191.445312 147.140625 192.109375 148.960938 193.292969 149.667969 C 193.367188 149.710938 193.421875 149.730469 193.453125 149.738281 C 193.339844 149.707031 193.976562 149.988281 194.675781 147.449219 C 195.492188 144.5 195.257812 142.398438 194.4375 140.898438 C 192.621094 137.574219 189.550781 135.652344 184.828125 135.945312 C 178.980469 136.304688 176.003906 138.898438 175.402344 142.8125 C 174.957031 145.722656 175.425781 148.457031 176.644531 150.945312 C 177.546875 152.785156 178.53125 153.03125 179.753906 152.511719 L 179.355469 152.792969 C 180.746094 151.269531 180.960938 148.964844 178.632812 145.78125 C 176.886719 143.386719 174.113281 141.898438 170.628906 141.601562 C 170.28125 141.570312 169.941406 141.554688 169.617188 141.550781 C 164.640625 141.5 161.890625 144.496094 161.828125 151.066406 C 161.800781 154.023438 162.621094 156.625 164.042969 158.894531 L 163.949219 158.765625 L 177.386719 174.785156 C 177.40625 174.808594 177.421875 174.828125 177.4375 174.851562 C 180.171875 178.640625 181.964844 181.664062 183.117188 183.777344 C 185.136719 187.46875 186.679688 194.589844 187.5625 205.089844 C 187.617188 205.71875 187.148438 206.269531 186.519531 206.324219 C 185.890625 206.375 185.339844 205.910156 185.285156 205.277344 Z M 185.285156 205.277344 " fill-opacity="1" fill-rule="nonzero"/></g></g></g></g><g clip-path="url(#9406cab545)"><g clip-path="url(#e60d150f49)"><g clip-path="url(#966fd1eded)"><g clip-path="url(#e04ae84168)"><path fill="#000000" d="M 194.714844 63.257812 C 194.359375 63.355469 194.058594 63.625 193.9375 64.003906 C 191.464844 71.617188 190.121094 75.660156 189.910156 76.136719 L 189.90625 76.136719 C 189.882812 76.183594 189.863281 76.230469 189.847656 76.277344 C 189.40625 77.542969 188.3125 80.132812 186.566406 84.046875 L 186.550781 84.078125 C 186.226562 84.871094 185.929688 85.699219 185.65625 86.5625 L 185.652344 86.566406 C 185.464844 87.167969 185.796875 87.808594 186.398438 88 C 186.617188 88.070312 186.84375 88.070312 187.050781 88.011719 C 187.410156 87.910156 187.710938 87.636719 187.835938 87.253906 L 187.835938 87.25 C 188.085938 86.460938 188.359375 85.703125 188.652344 84.980469 C 190.382812 81.105469 191.488281 78.488281 191.972656 77.128906 L 191.96875 77.132812 C 191.980469 77.109375 191.988281 77.089844 192 77.066406 C 192.242188 76.519531 193.613281 72.398438 196.109375 64.714844 C 196.304688 64.113281 195.976562 63.46875 195.375 63.269531 C 195.152344 63.199219 194.925781 63.199219 194.714844 63.257812 Z M 194.714844 63.257812 " fill-opacity="1" fill-rule="nonzero"/></g></g></g></g><g clip-path="url(#64ddd0d959)"><g clip-path="url(#7cabf5493a)"><g clip-path="url(#30f91baf72)"><g clip-path="url(#a041560730)"><path fill="#000000" d="M 243.417969 81.371094 C 243.242188 81.417969 243.082031 81.507812 242.941406 81.640625 C 238.550781 85.796875 233.878906 90.359375 228.925781 95.324219 L 228.921875 95.328125 C 226.582031 97.472656 224.796875 98.921875 223.5625 99.671875 C 223.023438 100 222.851562 100.703125 223.179688 101.242188 C 223.453125 101.691406 223.984375 101.886719 224.464844 101.75 C 224.5625 101.722656 224.660156 101.679688 224.75 101.625 C 226.117188 100.792969 228.035156 99.246094 230.507812 96.976562 C 230.519531 96.964844 230.53125 96.953125 230.542969 96.941406 C 235.480469 91.992188 240.136719 87.445312 244.511719 83.304688 C 244.96875 82.871094 244.992188 82.144531 244.554688 81.6875 C 244.253906 81.367188 243.8125 81.257812 243.417969 81.371094 Z M 243.417969 81.371094 " fill-opacity="1" fill-rule="nonzero"/></g></g></g></g><g clip-path="url(#953a999c9d)"><g clip-path="url(#4b38cbf039)"><g clip-path="url(#04c84cf4e3)"><g clip-path="url(#12803c5b18)"><path fill="#000000" d="M 249.5 135.289062 C 248.566406 135.550781 247.671875 135.859375 246.808594 136.21875 C 246.226562 136.457031 245.949219 137.128906 246.1875 137.710938 C 246.414062 138.253906 247.003906 138.53125 247.550781 138.375 C 247.59375 138.363281 247.636719 138.351562 247.679688 138.332031 C 248.460938 138.011719 249.273438 137.730469 250.117188 137.492188 C 251.792969 137.023438 253.59375 136.71875 255.527344 136.582031 C 255.554688 136.578125 255.585938 136.574219 255.613281 136.570312 C 256.925781 136.378906 262.234375 136.347656 271.539062 136.480469 C 271.652344 136.480469 271.761719 136.464844 271.867188 136.4375 C 272.339844 136.304688 272.691406 135.871094 272.699219 135.351562 C 272.707031 134.71875 272.203125 134.199219 271.570312 134.191406 C 262.261719 134.058594 256.847656 134.09375 255.332031 134.300781 L 255.328125 134.300781 C 253.253906 134.453125 251.3125 134.78125 249.5 135.289062 Z M 249.5 135.289062 " fill-opacity="1" fill-rule="nonzero"/></g></g></g></g><g clip-path="url(#1efa57d560)"><g clip-path="url(#71c844ce50)"><g clip-path="url(#6ce8cb07dd)"><g clip-path="url(#cdaf2a174f)"><path fill="#000000" d="M 239.246094 175.457031 C 239.148438 175.824219 238.9375 176.050781 238.617188 176.140625 C 238.476562 176.183594 238.3125 176.195312 238.132812 176.183594 L 238.132812 176.179688 C 238.257812 176.1875 238.378906 176.171875 238.492188 176.140625 C 238.832031 176.042969 239.113281 175.792969 239.246094 175.457031 Z M 237.726562 173.933594 C 237.316406 174.050781 237.085938 174.378906 237.027344 174.921875 L 237.027344 174.925781 C 236.980469 175.371094 237.160156 175.738281 237.558594 176.027344 C 238.101562 176.425781 241.625 178.355469 248.117188 181.816406 L 257.242188 187.132812 C 257.519531 187.296875 257.839844 187.328125 258.125 187.246094 C 258.402344 187.167969 258.648438 186.988281 258.804688 186.722656 C 259.121094 186.175781 258.9375 185.476562 258.390625 185.15625 L 249.230469 179.816406 L 249.191406 179.796875 C 243.191406 176.597656 239.800781 174.753906 239.019531 174.257812 C 238.835938 174.0625 238.585938 173.929688 238.300781 173.898438 C 238.078125 173.878906 237.886719 173.890625 237.726562 173.933594 Z M 237.726562 173.933594 " fill-opacity="1" fill-rule="nonzero"/></g></g></g></g><g clip-path="url(#4e6c110c80)"><g clip-path="url(#ca6a433744)"><g clip-path="url(#5050891ae9)"><g clip-path="url(#56f3dd4859)"><path fill="#000000" d="M 130.964844 184.492188 C 130.808594 184.535156 130.65625 184.613281 130.527344 184.726562 C 125.457031 189.125 121.074219 193.289062 117.375 197.21875 C 116.941406 197.679688 116.964844 198.402344 117.421875 198.835938 C 117.726562 199.121094 118.144531 199.210938 118.515625 199.105469 C 118.710938 199.050781 118.890625 198.945312 119.039062 198.789062 C 122.6875 194.914062 127.015625 190.800781 132.023438 186.457031 C 132.5 186.042969 132.550781 185.320312 132.136719 184.84375 C 131.839844 184.496094 131.378906 184.375 130.964844 184.492188 Z M 130.964844 184.492188 " fill-opacity="1" fill-rule="nonzero"/></g></g></g></g><g clip-path="url(#c5854b496c)"><g clip-path="url(#c75456c413)"><g clip-path="url(#058efa10d0)"><g clip-path="url(#e7ae2510c9)"><path fill="#000000" d="M 99.28125 137.703125 C 98.929688 137.800781 98.632812 138.066406 98.507812 138.4375 C 98.304688 139.035156 98.625 139.683594 99.222656 139.886719 C 100.679688 140.378906 104.242188 141.386719 109.90625 142.902344 C 109.925781 142.90625 109.945312 142.910156 109.960938 142.914062 C 116.632812 144.351562 120.230469 145.167969 120.753906 145.363281 C 120.8125 145.386719 120.875 145.40625 120.9375 145.421875 C 121.707031 145.597656 122.519531 145.960938 123.378906 146.503906 C 123.664062 146.6875 123.996094 146.726562 124.300781 146.640625 C 124.5625 146.566406 124.796875 146.402344 124.953125 146.15625 C 125.292969 145.621094 125.136719 144.914062 124.601562 144.574219 C 123.558594 143.910156 122.539062 143.457031 121.542969 143.214844 L 121.539062 143.214844 C 120.886719 142.976562 117.203125 142.136719 110.488281 140.6875 L 110.484375 140.6875 C 104.875 139.1875 101.363281 138.195312 99.953125 137.71875 C 99.726562 137.644531 99.496094 137.640625 99.28125 137.703125 Z M 99.28125 137.703125 " fill-opacity="1" fill-rule="nonzero"/></g></g></g></g><g clip-path="url(#eb6ea57366)"><g clip-path="url(#ad9f986fca)"><g clip-path="url(#ddb619a62d)"><g clip-path="url(#8a76bf5ea5)"><path fill="#000000" d="M 133.21875 71.734375 C 133.09375 71.769531 132.972656 71.824219 132.863281 71.90625 C 132.347656 72.273438 132.230469 72.988281 132.597656 73.5 C 135.296875 77.273438 136.886719 79.539062 137.359375 80.296875 C 137.367188 80.316406 137.378906 80.332031 137.390625 80.347656 C 138.054688 81.304688 139.644531 83.902344 142.160156 88.140625 L 142.183594 88.179688 C 142.902344 89.296875 143.761719 90.53125 144.757812 91.878906 C 145.050781 92.273438 145.542969 92.425781 145.988281 92.300781 C 146.117188 92.265625 146.242188 92.207031 146.359375 92.121094 C 146.863281 91.746094 146.972656 91.03125 146.597656 90.519531 C 145.640625 89.222656 144.816406 88.042969 144.125 86.976562 C 141.621094 82.753906 140.011719 80.121094 139.296875 79.085938 C 138.796875 78.289062 137.183594 75.980469 134.457031 72.167969 C 134.167969 71.765625 133.667969 71.605469 133.21875 71.734375 Z M 133.21875 71.734375 " fill-opacity="1" fill-rule="nonzero"/></g></g></g></g><g clip-path="url(#8d04ebbf99)"><g clip-path="url(#92f056ff3a)"><g clip-path="url(#a870082e78)"><g clip-path="url(#268549e52b)"><path fill="#000000" d="M 208.035156 114.890625 C 207.707031 114.980469 207.425781 115.214844 207.285156 115.550781 C 207.046875 116.136719 207.320312 116.804688 207.90625 117.046875 C 211.007812 118.335938 213.488281 120.117188 215.347656 122.390625 C 216.96875 124.519531 218.582031 128.144531 220.1875 133.257812 C 220.375 133.851562 220.996094 134.183594 221.585938 134.015625 C 221.597656 134.015625 221.609375 134.011719 221.621094 134.007812 C 222.222656 133.816406 222.558594 133.175781 222.367188 132.574219 C 220.675781 127.179688 218.929688 123.3125 217.136719 120.96875 L 217.117188 120.941406 C 215.015625 118.371094 212.234375 116.367188 208.777344 114.933594 C 208.53125 114.832031 208.269531 114.820312 208.035156 114.890625 Z M 208.035156 114.890625 " fill-opacity="1" fill-rule="nonzero"/></g></g></g></g><g clip-path="url(#a34158ff5a)"><g clip-path="url(#a2c3c85b71)"><g clip-path="url(#7941752ab2)"><g clip-path="url(#c72582fa75)"><path fill="#000000" d="M 222.328125 143.894531 C 221.859375 144.027344 221.507812 144.457031 221.492188 145.003906 C 221.480469 145.375 221.453125 145.746094 221.414062 146.121094 L 221.40625 146.246094 L 221.40625 146.210938 L 221.402344 146.214844 C 221.375 146.492188 221.296875 146.953125 221.164062 147.601562 C 221.039062 148.222656 221.4375 148.824219 222.058594 148.953125 C 222.242188 148.988281 222.421875 148.980469 222.59375 148.933594 C 222.992188 148.820312 223.316406 148.496094 223.402344 148.058594 C 223.558594 147.300781 223.652344 146.742188 223.683594 146.378906 C 223.734375 145.929688 223.765625 145.476562 223.777344 145.03125 L 223.777344 144.988281 C 223.773438 144.375 223.285156 143.871094 222.667969 143.855469 C 222.550781 143.851562 222.4375 143.863281 222.328125 143.894531 Z M 222.328125 143.894531 " fill-opacity="1" fill-rule="nonzero"/></g></g></g></g></svg>