<svg xmlns="http://www.w3.org/2000/svg" xmlns:xlink="http://www.w3.org/1999/xlink" width="1122" zoomAndPan="magnify" viewBox="0 0 841.92 595.499987" height="793" preserveAspectRatio="xMidYMid meet" version="1.0"><defs><clipPath id="d00b9cc739"><path d="M 205.613281 172 L 634 172 L 634 504 L 205.613281 504 Z M 205.613281 172 " clip-rule="nonzero"/></clipPath><clipPath id="9844394cf6"><path d="M 138 101 L 232 101 L 232 211 L 138 211 Z M 138 101 " clip-rule="nonzero"/></clipPath><clipPath id="554b6edfa5"><path d="M 83.226562 85.773438 L 246.28125 39.992188 L 295.503906 215.308594 L 132.453125 261.089844 Z M 83.226562 85.773438 " clip-rule="nonzero"/></clipPath><clipPath id="46a93eea5d"><path d="M 83.226562 85.773438 L 246.28125 39.992188 L 295.503906 215.308594 L 132.453125 261.089844 Z M 83.226562 85.773438 " clip-rule="nonzero"/></clipPath><clipPath id="bcd6b64721"><path d="M 171 201 L 219 201 L 219 222 L 171 222 Z M 171 201 " clip-rule="nonzero"/></clipPath><clipPath id="53c8d113be"><path d="M 83.226562 85.773438 L 246.28125 39.992188 L 295.503906 215.308594 L 132.453125 261.089844 Z M 83.226562 85.773438 " clip-rule="nonzero"/></clipPath><clipPath id="74352cd9ec"><path d="M 83.226562 85.773438 L 246.28125 39.992188 L 295.503906 215.308594 L 132.453125 261.089844 Z M 83.226562 85.773438 " clip-rule="nonzero"/></clipPath><clipPath id="ef01dbf5ba"><path d="M 171 211 L 220 211 L 220 231 L 171 231 Z M 171 211 " clip-rule="nonzero"/></clipPath><clipPath id="85ab056b8e"><path d="M 83.226562 85.773438 L 246.28125 39.992188 L 295.503906 215.308594 L 132.453125 261.089844 Z M 83.226562 85.773438 " clip-rule="nonzero"/></clipPath><clipPath id="9429514cf9"><path d="M 83.226562 85.773438 L 246.28125 39.992188 L 295.503906 215.308594 L 132.453125 261.089844 Z M 83.226562 85.773438 " clip-rule="nonzero"/></clipPath><clipPath id="b9e629f74b"><path d="M 178 222 L 217 222 L 217 237 L 178 237 Z M 178 222 " clip-rule="nonzero"/></clipPath><clipPath id="f40ba96cd1"><path d="M 83.226562 85.773438 L 246.28125 39.992188 L 295.503906 215.308594 L 132.453125 261.089844 Z M 83.226562 85.773438 " clip-rule="nonzero"/></clipPath><clipPath id="f2bf3d959c"><path d="M 83.226562 85.773438 L 246.28125 39.992188 L 295.503906 215.308594 L 132.453125 261.089844 Z M 83.226562 85.773438 " clip-rule="nonzero"/></clipPath><clipPath id="36bc33184a"><path d="M 190 230 L 210 230 L 210 242 L 190 242 Z M 190 230 " clip-rule="nonzero"/></clipPath><clipPath id="d52afa694b"><path d="M 83.226562 85.773438 L 246.28125 39.992188 L 295.503906 215.308594 L 132.453125 261.089844 Z M 83.226562 85.773438 " clip-rule="nonzero"/></clipPath><clipPath id="6cf3755be4"><path d="M 83.226562 85.773438 L 246.28125 39.992188 L 295.503906 215.308594 L 132.453125 261.089844 Z M 83.226562 85.773438 " clip-rule="nonzero"/></clipPath><clipPath id="82c1a95f02"><path d="M 159 133 L 213 133 L 213 207 L 159 207 Z M 159 133 " clip-rule="nonzero"/></clipPath><clipPath id="0131296a7b"><path d="M 83.226562 85.773438 L 246.28125 39.992188 L 295.503906 215.308594 L 132.453125 261.089844 Z M 83.226562 85.773438 " clip-rule="nonzero"/></clipPath><clipPath id="7137c26334"><path d="M 83.226562 85.773438 L 246.28125 39.992188 L 295.503906 215.308594 L 132.453125 261.089844 Z M 83.226562 85.773438 " clip-rule="nonzero"/></clipPath><clipPath id="219f777b5b"><path d="M 185 63 L 197 63 L 197 89 L 185 89 Z M 185 63 " clip-rule="nonzero"/></clipPath><clipPath id="ef2088eccf"><path d="M 83.226562 85.773438 L 246.28125 39.992188 L 295.503906 215.308594 L 132.453125 261.089844 Z M 83.226562 85.773438 " clip-rule="nonzero"/></clipPath><clipPath id="2042cdc5c0"><path d="M 83.226562 85.773438 L 246.28125 39.992188 L 295.503906 215.308594 L 132.453125 261.089844 Z M 83.226562 85.773438 " clip-rule="nonzero"/></clipPath><clipPath id="81b273b7ec"><path d="M 223 81 L 245 81 L 245 102 L 223 102 Z M 223 81 " clip-rule="nonzero"/></clipPath><clipPath id="33f0c1573a"><path d="M 83.226562 85.773438 L 246.28125 39.992188 L 295.503906 215.308594 L 132.453125 261.089844 Z M 83.226562 85.773438 " clip-rule="nonzero"/></clipPath><clipPath id="b9a0180e7a"><path d="M 83.226562 85.773438 L 246.28125 39.992188 L 295.503906 215.308594 L 132.453125 261.089844 Z M 83.226562 85.773438 " clip-rule="nonzero"/></clipPath><clipPath id="55aef1db2d"><path d="M 246 134 L 273 134 L 273 139 L 246 139 Z M 246 134 " clip-rule="nonzero"/></clipPath><clipPath id="f7ee2facba"><path d="M 83.226562 85.773438 L 246.28125 39.992188 L 295.503906 215.308594 L 132.453125 261.089844 Z M 83.226562 85.773438 " clip-rule="nonzero"/></clipPath><clipPath id="6e3fb58144"><path d="M 83.226562 85.773438 L 246.28125 39.992188 L 295.503906 215.308594 L 132.453125 261.089844 Z M 83.226562 85.773438 " clip-rule="nonzero"/></clipPath><clipPath id="ff0200c7e3"><path d="M 237 173 L 260 173 L 260 188 L 237 188 Z M 237 173 " clip-rule="nonzero"/></clipPath><clipPath id="0f55bc3eb2"><path d="M 83.226562 85.773438 L 246.28125 39.992188 L 295.503906 215.308594 L 132.453125 261.089844 Z M 83.226562 85.773438 " clip-rule="nonzero"/></clipPath><clipPath id="86691a40c9"><path d="M 83.226562 85.773438 L 246.28125 39.992188 L 295.503906 215.308594 L 132.453125 261.089844 Z M 83.226562 85.773438 " clip-rule="nonzero"/></clipPath><clipPath id="b6d113e806"><path d="M 117 184 L 133 184 L 133 200 L 117 200 Z M 117 184 " clip-rule="nonzero"/></clipPath><clipPath id="37b21ce1ce"><path d="M 83.226562 85.773438 L 246.28125 39.992188 L 295.503906 215.308594 L 132.453125 261.089844 Z M 83.226562 85.773438 " clip-rule="nonzero"/></clipPath><clipPath id="47a41c2847"><path d="M 83.226562 85.773438 L 246.28125 39.992188 L 295.503906 215.308594 L 132.453125 261.089844 Z M 83.226562 85.773438 " clip-rule="nonzero"/></clipPath><clipPath id="52a07d98c8"><path d="M 98 137 L 126 137 L 126 147 L 98 147 Z M 98 137 " clip-rule="nonzero"/></clipPath><clipPath id="38eafa7244"><path d="M 83.226562 85.773438 L 246.28125 39.992188 L 295.503906 215.308594 L 132.453125 261.089844 Z M 83.226562 85.773438 " clip-rule="nonzero"/></clipPath><clipPath id="4bc291f1da"><path d="M 83.226562 85.773438 L 246.28125 39.992188 L 295.503906 215.308594 L 132.453125 261.089844 Z M 83.226562 85.773438 " clip-rule="nonzero"/></clipPath><clipPath id="90b7499b44"><path d="M 132 71 L 147 71 L 147 93 L 132 93 Z M 132 71 " clip-rule="nonzero"/></clipPath><clipPath id="5b3e67fed9"><path d="M 83.226562 85.773438 L 246.28125 39.992188 L 295.503906 215.308594 L 132.453125 261.089844 Z M 83.226562 85.773438 " clip-rule="nonzero"/></clipPath><clipPath id="a5b32beac5"><path d="M 83.226562 85.773438 L 246.28125 39.992188 L 295.503906 215.308594 L 132.453125 261.089844 Z M 83.226562 85.773438 " clip-rule="nonzero"/></clipPath><clipPath id="7e315a1e6c"><path d="M 207 114 L 223 114 L 223 134 L 207 134 Z M 207 114 " clip-rule="nonzero"/></clipPath><clipPath id="c3f2d34633"><path d="M 83.226562 85.773438 L 246.28125 39.992188 L 295.503906 215.308594 L 132.453125 261.089844 Z M 83.226562 85.773438 " clip-rule="nonzero"/></clipPath><clipPath id="f821322d75"><path d="M 83.226562 85.773438 L 246.28125 39.992188 L 295.503906 215.308594 L 132.453125 261.089844 Z M 83.226562 85.773438 " clip-rule="nonzero"/></clipPath><clipPath id="9bfe304091"><path d="M 221 143 L 224 143 L 224 149 L 221 149 Z M 221 143 " clip-rule="nonzero"/></clipPath><clipPath id="d3e04527a7"><path d="M 83.226562 85.773438 L 246.28125 39.992188 L 295.503906 215.308594 L 132.453125 261.089844 Z M 83.226562 85.773438 " clip-rule="nonzero"/></clipPath><clipPath id="3fd326635c"><path d="M 83.226562 85.773438 L 246.28125 39.992188 L 295.503906 215.308594 L 132.453125 261.089844 Z M 83.226562 85.773438 " clip-rule="nonzero"/></clipPath></defs><g clip-path="url(#d00b9cc739)"><path fill="#ffffff" d="M 591.773438 293.949219 C 599.9375 295.253906 607.230469 286.511719 613.492188 285.984375 C 615.636719 288.265625 612.632812 289.421875 612.046875 291.777344 C 610.1875 299.222656 611.613281 311.6875 612.046875 322.183594 C 612.386719 330.441406 611.734375 333.980469 614.941406 341.734375 C 613.550781 343.539062 616.046875 344.707031 614.21875 346.078125 C 617.992188 354.917969 625.820312 349.242188 633.042969 353.316406 C 635.914062 364.941406 619.609375 386.269531 615.667969 396.035156 C 614.804688 398.167969 615.570312 399.765625 614.941406 401.101562 C 613.230469 404.746094 609.238281 407.9375 607.703125 411.964844 C 606.125 416.085938 605.460938 419.703125 603.359375 423.546875 C 600.96875 427.917969 597.4375 431.800781 595.394531 435.855469 C 594.1875 438.246094 594.421875 441.59375 593.222656 443.820312 C 592.328125 445.480469 590.265625 446.273438 589.601562 447.441406 C 588.9375 448.605469 589.65625 451.015625 588.878906 452.507812 C 585.867188 458.273438 582.636719 463.941406 579.464844 470.609375 C 575.367188 479.226562 568.117188 501.589844 558.46875 503.191406 C 552.660156 504.15625 548.144531 502.566406 541.09375 501.742188 C 514.242188 498.613281 477.503906 493.925781 441.175781 490.15625 C 430.703125 489.070312 415.347656 485.25 406.425781 487.261719 C 398.597656 489.027344 392.207031 499.503906 383.253906 499.570312 C 373.253906 499.644531 363.679688 494.539062 357.191406 483.640625 C 348.617188 484.144531 341.953125 484.226562 334.023438 485.8125 C 330.144531 486.589844 324.277344 485.355469 323.160156 485.8125 C 322.347656 486.148438 321.441406 488.644531 320.988281 488.710938 C 320.59375 488.765625 314.542969 484.582031 310.851562 489.433594 C 308.519531 488.472656 299.523438 488.433594 297.820312 492.332031 C 291.976562 488.070312 278.8125 490.171875 276.101562 493.054688 C 259.78125 491.769531 249.117188 495.121094 223.972656 495.949219 C 217.636719 496.160156 214.300781 498.289062 206.59375 493.054688 C 206.988281 491.027344 206.269531 489.773438 205.871094 486.539062 C 214.460938 482.707031 215.84375 467.597656 226.144531 466.265625 C 219.972656 475.433594 229.65625 471.589844 237.726562 473.503906 C 232.699219 479.015625 227.96875 474.765625 223.972656 480.023438 C 224.105469 482.058594 226.332031 482.003906 226.867188 483.640625 C 247.742188 479.777344 261.707031 481.964844 284.066406 479.296875 C 310.710938 476.121094 332.480469 472.453125 358.636719 473.503906 C 361.800781 476.964844 361.195312 482.664062 364.429688 486.539062 C 366.773438 489.34375 373.300781 493.347656 376.738281 493.777344 C 390.050781 495.453125 395.976562 486.035156 399.183594 476.402344 C 400.027344 476.519531 400.472656 476.242188 400.632812 475.675781 C 408.125 475.996094 412.148438 477.667969 417.285156 477.851562 C 419.515625 477.929688 422.308594 477.144531 425.972656 477.851562 C 430.292969 478.679688 433.585938 479.03125 438.28125 479.296875 C 451.285156 480.039062 464.871094 483.328125 478.101562 485.089844 C 503.6875 488.496094 527.703125 489.464844 547.609375 492.332031 C 546.53125 476.746094 544.917969 464.066406 543.265625 451.0625 C 541.925781 440.554688 543.789062 440.78125 534.574219 443.820312 C 527.597656 446.121094 519.65625 446.300781 514.304688 448.164062 C 498.070312 446.023438 480.53125 444.789062 460 439.476562 C 454.597656 438.078125 450.074219 435.0625 444.796875 434.410156 C 426.34375 432.125 404.097656 430.605469 388.324219 443.820312 C 385.488281 446.195312 383.367188 449.332031 379.636719 451.0625 C 339.4375 419.160156 307.617188 441.816406 248.585938 436.582031 C 244.363281 436.207031 241.515625 436.042969 235.554688 435.132812 C 230.671875 434.382812 227.886719 432.355469 223.972656 438.027344 C 224.902344 439.992188 227.570312 440.222656 230.488281 440.199219 C 230.871094 441.726562 238.710938 442.925781 242.070312 443.097656 C 261.09375 444.066406 273.351562 443.867188 301.441406 441.648438 C 318.558594 440.296875 339.78125 439.246094 354.292969 445.992188 C 356.671875 447.097656 358.558594 448.21875 359.363281 451.0625 C 355 452.523438 351.09375 447.9375 345.605469 446.71875 C 326.121094 442.382812 302.808594 445.023438 282.617188 446.71875 C 270.707031 447.714844 257.742188 447.003906 247.140625 446.71875 C 245.652344 446.675781 242.488281 446.972656 240.625 446.71875 C 232.347656 445.582031 225.679688 438.273438 223.246094 448.164062 C 231.621094 452.175781 237.625 451.695312 250.035156 452.507812 C 273.917969 454.074219 295.144531 449.191406 316.644531 448.890625 C 325.753906 448.761719 334.300781 450.605469 344.160156 453.234375 C 346.632812 453.894531 351.019531 452.140625 351.398438 456.851562 C 325.1875 449.683594 309.320312 455.386719 273.203125 456.851562 C 265.566406 457.164062 258.601562 457.046875 251.484375 456.851562 C 239.527344 456.527344 229.460938 450.492188 224.695312 459.75 C 230.691406 464.351562 238.515625 462.59375 245.691406 462.644531 C 261.070312 462.753906 275.609375 463.605469 291.304688 461.921875 C 307.519531 460.179688 320.085938 457.070312 334.023438 459.023438 C 337.558594 462.519531 340.859375 458.503906 342.710938 463.371094 C 301.160156 460.824219 275.097656 470.730469 241.347656 467.714844 C 230.640625 466.757812 225.039062 463.441406 218.179688 461.195312 C 217.230469 455.886719 223.824219 455.964844 223.246094 453.234375 C 221.796875 450.535156 221.082031 451.582031 217.453125 451.0625 C 215.527344 447.238281 219.371094 444.847656 222.523438 442.371094 C 221.679688 439.835938 218.882812 439.257812 217.453125 437.304688 C 218.757812 435.230469 220.175781 433.265625 221.796875 431.511719 C 218.875 428.402344 214.5 426.746094 210.214844 424.996094 C 212.828125 420.980469 217.902344 420.496094 221.796875 417.757812 C 228.261719 413.214844 233.957031 405.007812 239.175781 399.65625 C 244.203125 394.496094 249.917969 390.691406 247.863281 385.175781 C 241.984375 369.378906 247.027344 340.820312 273.203125 332.320312 C 273.519531 329.59375 271.675781 329.023438 270.308594 327.976562 C 253.820312 332.894531 241.386719 347.574219 239.898438 366.351562 C 237.496094 367.253906 237.632812 365.289062 234.105469 365.625 C 222.265625 348.527344 209.980469 342.03125 210.9375 314.222656 C 222.695312 287.332031 257.445312 270.691406 278.996094 272.953125 C 279.558594 267.507812 275.515625 253.667969 278.996094 247.609375 C 266.953125 235.316406 277.9375 214.265625 288.410156 201.996094 C 289.328125 200.921875 292.132812 199.996094 293.476562 198.378906 C 296.507812 194.730469 306.402344 184.636719 312.300781 182.449219 C 313.773438 181.902344 316.433594 182.203125 317.371094 181.726562 C 333.769531 173.351562 356.863281 172.34375 373.117188 175.207031 C 376.710938 175.84375 380.453125 176.257812 381.808594 176.65625 C 386.109375 177.921875 393.617188 182.152344 394.839844 183.171875 C 396.121094 184.242188 395.429688 185.597656 396.289062 186.792969 C 400.820312 193.113281 407.988281 199.558594 411.492188 207.066406 C 439.222656 197 459.574219 175.988281 494.753906 173.761719 C 495.398438 173.441406 496.050781 173.125 496.203125 172.3125 C 508.578125 174.335938 526.261719 171.53125 541.09375 181.726562 C 543.488281 183.371094 545.425781 185.460938 548.332031 187.515625 C 557.796875 194.210938 566.132812 207.503906 571.5 217.925781 C 575.6875 226.050781 579.777344 235.503906 581.636719 243.992188 C 582.6875 248.78125 586.113281 253.03125 586.707031 256.300781 C 586.902344 257.390625 585.726562 258.84375 585.980469 259.917969 C 586.558594 262.339844 588.394531 264.347656 588.878906 267.882812 C 590.171875 277.359375 589.804688 283.023438 591.773438 293.949219 Z M 392.667969 190.414062 C 386.402344 185.984375 379.1875 182.8125 371.671875 181.726562 C 348.199219 178.328125 328.039062 178.246094 310.128906 191.136719 C 309.289062 192.652344 310.46875 193.859375 307.957031 194.757812 C 306.214844 194.460938 306.382812 196.078125 304.335938 195.480469 C 294.929688 212.382812 279.535156 219.144531 281.167969 243.265625 C 289.417969 250.222656 297.199219 257.644531 306.507812 263.539062 C 298.773438 268.675781 291.984375 258.339844 285.511719 254.128906 C 280.992188 262.644531 284.191406 272.433594 289.855469 283.8125 C 300.125 270.578125 322.035156 276.464844 331.125 288.15625 C 332.945312 286.355469 337.015625 286.808594 338.367188 284.535156 C 334.894531 270.6875 346.777344 257.976562 360.8125 260.644531 C 368.691406 262.140625 375.546875 269.375 379.636719 272.226562 C 387.761719 261.09375 393.714844 251.308594 401.355469 240.371094 C 401.695312 237.859375 397.425781 239.957031 397.011719 238.199219 C 403.257812 232.273438 410.457031 231.109375 412.214844 221.546875 C 404.382812 211.429688 399.988281 201.59375 392.667969 190.414062 Z M 418.007812 267.882812 C 429.4375 263.699219 433.578125 253.085938 437.558594 241.09375 C 439.765625 234.445312 439.925781 219.636719 431.765625 216.476562 C 417.902344 211.117188 408.003906 233.625 410.042969 243.992188 C 407.429688 247.039062 402.1875 248.867188 399.183594 252.679688 C 396.511719 256.070312 394.289062 262.308594 391.21875 267.160156 C 387.710938 272.699219 383 277.84375 382.53125 281.640625 C 382.023438 285.753906 384.660156 289.808594 383.980469 293.949219 C 383.285156 298.171875 380.3125 299.371094 380.359375 303.359375 C 371.5 309.46875 364.691406 312.738281 355.742188 309.152344 C 347.933594 306.027344 344.117188 296.597656 336.195312 293.949219 C 333.851562 298.894531 336.828125 302.394531 337.640625 306.257812 C 339.394531 314.582031 336.636719 320.867188 341.984375 328.703125 C 349.925781 324.53125 348.367188 314.339844 355.019531 309.875 C 355.230469 311.351562 356.976562 311.296875 357.191406 312.773438 C 356.203125 321.070312 350.757812 327.640625 345.605469 333.769531 C 359.894531 344.585938 384.503906 346.804688 403.527344 336.664062 C 418.371094 321.988281 422.066406 297.097656 416.558594 272.953125 C 414.394531 271.980469 411.535156 271.703125 411.492188 268.609375 C 412.839844 265.550781 415.207031 267.21875 418.007812 267.882812 Z M 347.777344 270.78125 C 335.441406 285.894531 356.34375 313.039062 374.566406 299.015625 C 383.199219 279.359375 359.769531 260.679688 347.777344 270.78125 Z M 298.542969 285.261719 C 297.640625 289.382812 295.097656 290.828125 294.925781 293.949219 C 294.90625 294.304688 296.347656 301.125 296.371094 301.1875 C 301.824219 315.476562 329.066406 319.328125 328.230469 301.914062 C 327.921875 295.464844 322.800781 293.097656 320.265625 287.433594 C 311.933594 283.992188 307.414062 283.03125 298.542969 285.261719 Z M 557.019531 304.808594 C 550.453125 302.96875 542.210938 299.925781 537.472656 304.808594 C 528.015625 324.773438 514.519531 345.070312 494.753906 356.9375 C 489.996094 353.183594 493.65625 350.246094 492.582031 346.800781 C 488.230469 332.847656 464.414062 319.945312 454.933594 327.976562 C 462.800781 330.570312 471.921875 334.5 478.101562 342.457031 C 486.484375 353.253906 481.902344 361.453125 470.136719 369.96875 C 467.898438 370.625 466.148438 371.773438 464.347656 372.867188 C 464.980469 382.4375 457.15625 389.148438 448.417969 391.691406 C 440.75 385.472656 434.609375 392.214844 425.972656 385.898438 C 419.121094 388.84375 412.402344 381.828125 411.492188 375.039062 C 400.945312 378.125 387.316406 403.96875 376.015625 397.484375 C 373.894531 396.265625 373.851562 393.417969 374.566406 390.242188 C 377.554688 376.992188 400.863281 353.886719 412.941406 350.421875 C 414.976562 348.90625 412.824219 347.699219 415.113281 346.800781 C 421.367188 343.402344 428.25 340.632812 433.9375 336.664062 C 434.679688 328.664062 442.179688 325.257812 442.625 317.117188 C 436.621094 314.90625 432.160156 312.484375 424.523438 312.773438 C 419.09375 324.367188 411.320312 338.910156 399.183594 345.355469 C 395.289062 347.421875 390.292969 347.480469 385.425781 348.25 C 361.765625 352.003906 337.425781 340.453125 315.921875 322.183594 C 309.441406 322.78125 306.902344 319.152344 299.992188 318.566406 C 298.882812 327.402344 292.164062 332.707031 292.027344 340.285156 C 300.886719 345.128906 319.488281 340.1875 315.921875 354.042969 C 307.03125 366.03125 292.59375 365.421875 281.167969 356.9375 C 271.796875 367.222656 264.941406 384.039062 252.929688 391.691406 C 244.621094 405.34375 230.523438 413.207031 221.796875 426.445312 C 246.96875 436.578125 289.765625 428.296875 315.921875 425.71875 C 337.117188 427.695312 358.714844 428.023438 378.910156 442.371094 C 385.984375 425.378906 397.042969 408.929688 407.148438 388.796875 C 409.519531 388.175781 410.566406 383.511719 412.941406 385.175781 C 405.476562 405.710938 393.585938 419.578125 386.152344 438.753906 C 395.191406 433.242188 402.839844 427.527344 411.492188 425.71875 C 430.457031 421.757812 447.976562 428.738281 470.136719 434.410156 C 493.867188 440.480469 518.589844 445.179688 541.09375 435.855469 C 542.410156 432.800781 543.078125 431.433594 543.265625 428.617188 C 544.6875 428.832031 544.699219 427.636719 545.4375 427.167969 C 545.851562 420.652344 550.226562 416.871094 553.398438 410.515625 C 555.269531 406.773438 555.210938 402.265625 557.019531 398.207031 C 558.988281 393.804688 562.890625 389.921875 564.984375 385.175781 C 571.257812 370.960938 578.121094 357.109375 583.085938 343.183594 C 583.921875 340.832031 586.414062 338.988281 587.429688 336.664062 C 587.855469 335.691406 587.0625 334 587.429688 333.046875 C 588.398438 330.523438 591.226562 328.5625 592.496094 325.804688 C 597.046875 315.949219 602.292969 303.792969 606.253906 295.394531 C 607.363281 295.222656 606.359375 294.203125 605.53125 293.949219 C 591.945312 301.917969 572.269531 302.078125 557.019531 304.808594 Z M 591.050781 334.492188 C 587.410156 348.148438 582.859375 349.378906 578.742188 364.179688 C 571.101562 380.5625 560.972656 397.136719 554.125 414.859375 C 553.445312 416.613281 554.097656 418.78125 553.398438 420.652344 C 551.316406 426.234375 546.59375 431.339844 545.4375 435.855469 C 544.074219 441.167969 545.847656 448.636719 548.332031 453.234375 C 552.328125 439.007812 558.960938 432.261719 563.535156 417.757812 C 568.476562 410.324219 572.355469 402.941406 576.570312 394.585938 C 580.964844 385.867188 583.855469 374.757812 590.324219 367.796875 C 588.222656 375.769531 584.027344 384.238281 580.1875 390.96875 C 579.402344 392.34375 579.71875 395.65625 578.742188 398.207031 C 575.054688 407.832031 567.03125 418.917969 562.089844 430.0625 C 556.671875 442.28125 547.851562 454.328125 549.78125 463.371094 C 562.796875 437.308594 576.925781 406.058594 593.222656 379.382812 C 595.460938 383.4375 590.789062 383.292969 591.050781 388.796875 C 587.804688 389.503906 589.074219 392.769531 588.152344 394.585938 C 577.472656 415.691406 567.519531 433.847656 556.296875 458.300781 C 552.078125 463.722656 551.300781 466.644531 549.78125 474.953125 C 553.75 470.28125 556.167969 464.5625 559.191406 458.300781 C 564.585938 447.140625 570.808594 437.695312 576.570312 426.445312 C 581.140625 417.519531 581.769531 404.691406 590.324219 398.929688 C 587.839844 406.214844 583.738281 412.714844 580.914062 419.203125 C 579.957031 421.398438 580.4375 424.1875 579.464844 426.445312 C 572.554688 442.511719 560.515625 456.597656 555.574219 474.953125 C 553.246094 477.449219 550.902344 482.121094 552.675781 484.367188 C 557.710938 479.675781 557.476562 473.101562 560.640625 466.988281 C 562.550781 463.300781 566.707031 460.515625 567.878906 457.578125 C 568.28125 456.574219 567.382812 454.910156 567.878906 453.957031 C 568.582031 452.609375 571.023438 451.925781 571.5 450.335938 C 572.769531 446.125 572.988281 444.269531 574.398438 441.648438 C 576.707031 437.347656 578.046875 433.175781 580.1875 428.617188 C 588.808594 410.269531 596.296875 397.632812 606.976562 377.210938 C 610.128906 371.1875 614.707031 363.824219 615.667969 357.664062 C 605.242188 343.929688 607.839844 315.972656 605.53125 305.53125 C 599.628906 317.277344 598.671875 324.785156 591.050781 334.492188 Z M 323.160156 321.460938 C 327.054688 323.464844 331.488281 328.4375 335.46875 327.976562 C 333.917969 320.40625 336.125 316.464844 332.574219 310.601562 C 331.777344 316.566406 325.023438 316.558594 323.160156 321.460938 Z M 439.003906 334.492188 C 449.0625 329.414062 459.339844 321.277344 462.171875 311.324219 C 449.894531 310.738281 441.386719 325.695312 439.003906 334.492188 Z M 478.101562 356.214844 C 478.125 353.066406 478.863281 348.421875 477.378906 346.800781 C 470.378906 339.164062 459.328125 331.15625 450.589844 333.046875 C 445.578125 334.128906 438.097656 340.074219 433.9375 342.457031 C 425.492188 347.296875 417.691406 351.148438 410.769531 356.214844 C 405.398438 360.140625 400.015625 364.140625 397.011719 366.351562 C 392.8125 369.441406 387.636719 376.960938 385.425781 380.105469 C 386.515625 382.15625 388.617188 383.191406 389.046875 385.898438 C 386.96875 388.890625 382.925781 389.914062 381.082031 393.140625 C 390.074219 389.546875 398.582031 380.9375 406.425781 374.316406 C 409.289062 371.894531 413.144531 368.171875 415.113281 365.625 C 418.175781 361.664062 419.925781 352.746094 426.695312 356.214844 C 418.191406 362.164062 411.738281 381.335938 424.523438 381.554688 C 423.613281 370.265625 428.574219 360.992188 436.109375 360.558594 C 429.773438 369.160156 422.816406 382.058594 436.832031 384.449219 C 437.3125 377.027344 437.640625 366.21875 446.96875 362.007812 C 447.160156 368.949219 438.53125 377.074219 441.175781 382.277344 C 445.929688 391.621094 460.6875 383.277344 460.726562 374.316406 C 456.183594 372.527344 454.578125 380.539062 449.867188 377.210938 C 456.699219 368.550781 470.574219 365.917969 478.101562 356.214844 Z M 268.136719 337.390625 C 264.257812 339.773438 264.003906 344.546875 258 346.078125 C 251.339844 356.8125 246.890625 373.121094 253.65625 385.175781 C 264.449219 377.75 259.503906 361.855469 270.308594 354.042969 C 279.371094 343.40625 299.664062 369.222656 310.128906 351.144531 C 305.929688 349.410156 303.382812 353.496094 300.71875 354.042969 C 300.410156 352.660156 298.648438 352.730469 299.269531 350.421875 C 301.777344 350.101562 306.351562 350.507812 307.957031 346.078125 C 291.058594 353.253906 284.859375 327.109375 268.136719 337.390625 Z M 267.410156 369.246094 C 268.433594 364.019531 277.605469 359.941406 274.652344 355.488281 C 270.753906 358.640625 263.828125 365.148438 267.410156 369.246094 Z M 380.359375 388.070312 C 383.425781 388.242188 384.648438 386.566406 385.425781 384.449219 C 384.046875 384.144531 384.117188 382.382812 381.808594 383.003906 C 380.242188 385.101562 380.835938 384.878906 380.359375 388.070312 Z M 380.359375 388.070312 " fill-opacity="1" fill-rule="evenodd"/></g><path fill="#ffffff" d="M 326.058594 239.648438 C 318.726562 230.390625 322.691406 215.851562 328.230469 204.167969 C 332.46875 195.230469 339.675781 183.542969 348.503906 183.898438 C 349.34375 187.074219 346.175781 190.761719 342.710938 191.863281 C 333.789062 205.679688 325.074219 219.429688 326.058594 239.648438 Z M 326.058594 239.648438 " fill-opacity="1" fill-rule="evenodd"/><path fill="#ffffff" d="M 355.019531 186.792969 C 354.632812 190.269531 353.429688 192.929688 349.949219 193.308594 C 342.007812 207.460938 332.402344 219.671875 332.574219 235.300781 C 332.613281 238.996094 337.136719 245.664062 331.851562 249.058594 C 323.285156 234.238281 330.238281 211.597656 339.8125 198.378906 C 343.867188 192.785156 349.863281 187.375 355.019531 186.792969 Z M 355.019531 186.792969 " fill-opacity="1" fill-rule="evenodd"/><path fill="#ffffff" d="M 387.597656 207.789062 C 385.945312 212.0625 380.972656 216.332031 376.738281 220.097656 C 376 221.050781 376.03125 222.765625 375.292969 223.71875 C 368.316406 226.992188 366.695312 239.101562 359.363281 239.648438 C 362.136719 226.4375 375.699219 217.886719 383.253906 207.066406 C 385.035156 206.96875 386.746094 206.957031 387.597656 207.789062 Z M 387.597656 207.789062 " fill-opacity="1" fill-rule="evenodd"/><path fill="#ffffff" d="M 393.390625 209.960938 C 394.820312 210.460938 395.320312 211.894531 395.5625 213.582031 C 389.347656 217.742188 385.703125 224.476562 379.636719 228.785156 C 379.082031 234.558594 374.707031 240.726562 370.945312 238.921875 C 373.726562 227.441406 383.980469 217.222656 393.390625 209.960938 Z M 393.390625 209.960938 " fill-opacity="1" fill-rule="evenodd"/><path fill="#ffffff" d="M 401.355469 215.753906 C 398.410156 220.289062 394.414062 223.777344 389.773438 226.613281 C 387.230469 229.625 386.097656 234.039062 381.808594 235.300781 C 382.675781 225.992188 392.285156 219.261719 401.355469 215.753906 Z M 401.355469 215.753906 " fill-opacity="1" fill-rule="evenodd"/><path fill="#201e1e" d="M 411.492188 268.609375 C 411.535156 271.703125 414.394531 271.980469 416.558594 272.953125 C 422.066406 297.097656 418.371094 321.988281 403.527344 336.664062 C 384.503906 346.804688 359.894531 344.585938 345.605469 333.769531 C 350.757812 327.640625 356.203125 321.070312 357.191406 312.773438 C 356.976562 311.296875 355.230469 311.351562 355.019531 309.875 C 348.367188 314.339844 349.925781 324.53125 341.984375 328.703125 C 336.636719 320.867188 339.394531 314.582031 337.640625 306.257812 C 336.828125 302.394531 333.851562 298.894531 336.195312 293.949219 C 344.117188 296.597656 347.933594 306.027344 355.742188 309.152344 C 364.691406 312.738281 371.5 309.46875 380.359375 303.359375 C 380.3125 299.371094 383.285156 298.171875 383.980469 293.949219 C 384.660156 289.808594 382.023438 285.753906 382.53125 281.640625 C 383 277.84375 387.710938 272.699219 391.21875 267.160156 C 394.289062 262.308594 396.511719 256.070312 399.183594 252.679688 C 402.1875 248.867188 407.429688 247.039062 410.042969 243.992188 C 408.003906 233.625 417.902344 211.117188 431.765625 216.476562 C 439.925781 219.636719 439.765625 234.445312 437.558594 241.09375 C 433.578125 253.085938 429.4375 263.699219 418.007812 267.882812 C 415.207031 267.21875 412.839844 265.550781 411.492188 268.609375 Z M 412.214844 245.4375 C 414.039062 246.511719 414.367188 249.082031 418.007812 248.335938 C 421.042969 246.300781 422.207031 242.398438 425.972656 241.09375 C 430.5625 247.320312 421.441406 250.558594 418.730469 254.128906 C 417.773438 253.875 415.097656 252.960938 412.941406 251.957031 C 410.304688 256.53125 415.480469 258.886719 418.730469 259.917969 C 426.457031 254.933594 433.785156 246.988281 430.316406 237.476562 C 425.15625 234.648438 420.914062 239.660156 417.285156 242.542969 C 416.191406 233.824219 422.234375 226.527344 428.867188 221.546875 C 427.375 221.347656 428.695312 218.339844 426.695312 218.648438 C 417.761719 225.078125 412.722656 231.070312 412.214844 245.4375 Z M 368.773438 331.597656 C 370.824219 335.128906 375.871094 334.160156 376.738281 328.703125 C 374.632812 326.304688 370.179688 327.882812 368.773438 331.597656 Z M 368.773438 331.597656 " fill-opacity="1" fill-rule="evenodd"/><path fill="#ffffff" d="M 426.695312 218.648438 C 428.695312 218.339844 427.375 221.347656 428.867188 221.546875 C 422.234375 226.527344 416.191406 233.824219 417.285156 242.542969 C 420.914062 239.660156 425.15625 234.648438 430.316406 237.476562 C 433.785156 246.988281 426.457031 254.933594 418.730469 259.917969 C 415.480469 258.886719 410.304688 256.53125 412.941406 251.957031 C 415.097656 252.960938 417.773438 253.875 418.730469 254.128906 C 421.441406 250.558594 430.5625 247.320312 425.972656 241.09375 C 422.207031 242.398438 421.042969 246.300781 418.007812 248.335938 C 414.367188 249.082031 414.039062 246.511719 412.214844 245.4375 C 412.722656 231.070312 417.761719 225.078125 426.695312 218.648438 Z M 426.695312 218.648438 " fill-opacity="1" fill-rule="evenodd"/><path fill="#ffffff" d="M 404.976562 220.097656 C 405.621094 220.417969 406.269531 220.734375 406.425781 221.546875 C 405.480469 224.707031 403.332031 226.660156 399.90625 227.339844 C 396.214844 231.433594 391.558594 238.207031 386.152344 238.199219 C 388.070312 230.664062 397.179688 224.160156 404.976562 220.097656 Z M 404.976562 220.097656 " fill-opacity="1" fill-rule="evenodd"/><path fill="#ffffff" d="M 303.613281 229.511719 C 314.925781 235.332031 320.464844 246.929688 328.230469 256.300781 C 326.59375 256.703125 329.105469 257.429688 327.503906 258.472656 C 318.1875 253.046875 309.058594 241.214844 303.613281 229.511719 Z M 303.613281 229.511719 " fill-opacity="1" fill-rule="evenodd"/><path fill="#ffffff" d="M 293.476562 233.128906 C 304.472656 241.257812 315.347656 249.667969 322.4375 259.917969 C 319.894531 262.605469 315.347656 258.382812 313.023438 256.300781 C 305.972656 249.972656 296.75 239.78125 293.476562 233.128906 Z M 293.476562 233.128906 " fill-opacity="1" fill-rule="evenodd"/><path fill="#ffffff" d="M 289.132812 238.921875 L 291.304688 238.921875 C 296.164062 248.324219 309.855469 252.679688 313.023438 261.367188 C 301.746094 257.195312 294.003906 249.492188 289.132812 238.921875 Z M 289.132812 238.921875 " fill-opacity="1" fill-rule="evenodd"/><path fill="#201e1e" d="M 374.566406 299.015625 C 356.34375 313.039062 335.441406 285.894531 347.777344 270.78125 C 359.769531 260.679688 383.199219 279.359375 374.566406 299.015625 Z M 353.570312 295.394531 C 356.121094 296.792969 357.957031 298.226562 360.085938 298.292969 C 361.496094 295.390625 360.390625 291.324219 354.292969 291.050781 C 353.460938 291.90625 353.476562 293.617188 353.570312 295.394531 Z M 353.570312 295.394531 " fill-opacity="1" fill-rule="evenodd"/><path fill="#201e1e" d="M 320.265625 287.433594 C 322.800781 293.097656 327.921875 295.464844 328.230469 301.914062 C 329.066406 319.328125 301.824219 315.476562 296.371094 301.1875 C 296.347656 301.125 294.90625 294.304688 294.925781 293.949219 C 295.097656 290.828125 297.640625 289.382812 298.542969 285.261719 C 307.414062 283.03125 311.933594 283.992188 320.265625 287.433594 Z M 323.160156 306.980469 C 324.101562 301.453125 320.21875 300.753906 316.644531 299.742188 C 314.285156 303.910156 319.078125 309.152344 323.160156 306.980469 Z M 323.160156 306.980469 " fill-opacity="1" fill-rule="evenodd"/><path fill="#ffffff" d="M 354.292969 291.050781 C 360.390625 291.324219 361.496094 295.390625 360.085938 298.292969 C 357.957031 298.226562 356.121094 296.792969 353.570312 295.394531 C 353.476562 293.617188 353.460938 291.90625 354.292969 291.050781 Z M 354.292969 291.050781 " fill-opacity="1" fill-rule="evenodd"/><path fill="#201e1e" d="M 605.53125 293.949219 C 606.359375 294.203125 607.363281 295.222656 606.253906 295.394531 C 602.292969 303.792969 597.046875 315.949219 592.496094 325.804688 C 591.226562 328.5625 588.398438 330.523438 587.429688 333.046875 C 587.0625 334 587.855469 335.691406 587.429688 336.664062 C 586.414062 338.988281 583.921875 340.832031 583.085938 343.183594 C 578.121094 357.109375 571.257812 370.960938 564.984375 385.175781 C 562.890625 389.921875 558.988281 393.804688 557.019531 398.207031 C 555.210938 402.265625 555.269531 406.773438 553.398438 410.515625 C 550.226562 416.871094 545.851562 420.652344 545.4375 427.167969 C 544.699219 427.636719 544.6875 428.832031 543.265625 428.617188 C 543.078125 431.433594 542.410156 432.800781 541.09375 435.855469 C 518.589844 445.179688 493.867188 440.480469 470.136719 434.410156 C 447.976562 428.738281 430.457031 421.757812 411.492188 425.71875 C 402.839844 427.527344 395.191406 433.242188 386.152344 438.753906 C 393.585938 419.578125 405.476562 405.710938 412.941406 385.175781 C 410.566406 383.511719 409.519531 388.175781 407.148438 388.796875 C 397.042969 408.929688 385.984375 425.378906 378.910156 442.371094 C 358.714844 428.023438 337.117188 427.695312 315.921875 425.71875 C 289.765625 428.296875 246.96875 436.578125 221.796875 426.445312 C 230.523438 413.207031 244.621094 405.34375 252.929688 391.691406 C 264.941406 384.039062 271.796875 367.222656 281.167969 356.9375 C 292.59375 365.421875 307.03125 366.03125 315.921875 354.042969 C 319.488281 340.1875 300.886719 345.128906 292.027344 340.285156 C 292.164062 332.707031 298.882812 327.402344 299.992188 318.566406 C 306.902344 319.152344 309.441406 322.78125 315.921875 322.183594 C 337.425781 340.453125 361.765625 352.003906 385.425781 348.25 C 390.292969 347.480469 395.289062 347.421875 399.183594 345.355469 C 411.320312 338.910156 419.09375 324.367188 424.523438 312.773438 C 432.160156 312.484375 436.621094 314.90625 442.625 317.117188 C 442.179688 325.257812 434.679688 328.664062 433.9375 336.664062 C 428.25 340.632812 421.367188 343.402344 415.113281 346.800781 C 412.824219 347.699219 414.976562 348.90625 412.941406 350.421875 C 400.863281 353.886719 377.554688 376.992188 374.566406 390.242188 C 373.851562 393.417969 373.894531 396.265625 376.015625 397.484375 C 387.316406 403.96875 400.945312 378.125 411.492188 375.039062 C 412.402344 381.828125 419.121094 388.84375 425.972656 385.898438 C 434.609375 392.214844 440.75 385.472656 448.417969 391.691406 C 457.15625 389.148438 464.980469 382.4375 464.347656 372.867188 C 466.148438 371.773438 467.898438 370.625 470.136719 369.96875 C 481.902344 361.453125 486.484375 353.253906 478.101562 342.457031 C 471.921875 334.5 462.800781 330.570312 454.933594 327.976562 C 464.414062 319.945312 488.230469 332.847656 492.582031 346.800781 C 493.65625 350.246094 489.996094 353.183594 494.753906 356.9375 C 514.519531 345.070312 528.015625 324.773438 537.472656 304.808594 C 542.210938 299.925781 550.453125 302.96875 557.019531 304.808594 C 572.269531 302.078125 591.945312 301.917969 605.53125 293.949219 Z M 605.53125 293.949219 " fill-opacity="1" fill-rule="evenodd"/><path fill="#ffffff" d="M 316.644531 299.742188 C 320.21875 300.753906 324.101562 301.453125 323.160156 306.980469 C 319.078125 309.152344 314.285156 303.910156 316.644531 299.742188 Z M 316.644531 299.742188 " fill-opacity="1" fill-rule="evenodd"/><path fill="#201e1e" d="M 605.53125 305.53125 C 607.839844 315.972656 605.242188 343.929688 615.667969 357.664062 C 614.707031 363.824219 610.128906 371.1875 606.976562 377.210938 C 596.296875 397.632812 588.808594 410.269531 580.1875 428.617188 C 578.046875 433.175781 576.707031 437.347656 574.398438 441.648438 C 572.988281 444.269531 572.769531 446.125 571.5 450.335938 C 571.023438 451.925781 568.582031 452.609375 567.878906 453.957031 C 567.382812 454.910156 568.28125 456.574219 567.878906 457.578125 C 566.707031 460.515625 562.550781 463.300781 560.640625 466.988281 C 557.476562 473.101562 557.710938 479.675781 552.675781 484.367188 C 550.902344 482.121094 553.246094 477.449219 555.574219 474.953125 C 560.515625 456.597656 572.554688 442.511719 579.464844 426.445312 C 580.4375 424.1875 579.957031 421.398438 580.914062 419.203125 C 583.738281 412.714844 587.839844 406.214844 590.324219 398.929688 C 581.769531 404.691406 581.140625 417.519531 576.570312 426.445312 C 570.808594 437.695312 564.585938 447.140625 559.191406 458.300781 C 556.167969 464.5625 553.75 470.28125 549.78125 474.953125 C 551.300781 466.644531 552.078125 463.722656 556.296875 458.300781 C 567.519531 433.847656 577.472656 415.691406 588.152344 394.585938 C 589.074219 392.769531 587.804688 389.503906 591.050781 388.796875 C 590.789062 383.292969 595.460938 383.4375 593.222656 379.382812 C 576.925781 406.058594 562.796875 437.308594 549.78125 463.371094 C 547.851562 454.328125 556.671875 442.28125 562.089844 430.0625 C 567.03125 418.917969 575.054688 407.832031 578.742188 398.207031 C 579.71875 395.65625 579.402344 392.34375 580.1875 390.96875 C 584.027344 384.238281 588.222656 375.769531 590.324219 367.796875 C 583.855469 374.757812 580.964844 385.867188 576.570312 394.585938 C 572.355469 402.941406 568.476562 410.324219 563.535156 417.757812 C 558.960938 432.261719 552.328125 439.007812 548.332031 453.234375 C 545.847656 448.636719 544.074219 441.167969 545.4375 435.855469 C 546.59375 431.339844 551.316406 426.234375 553.398438 420.652344 C 554.097656 418.78125 553.445312 416.613281 554.125 414.859375 C 560.972656 397.136719 571.101562 380.5625 578.742188 364.179688 C 582.859375 349.378906 587.410156 348.148438 591.050781 334.492188 C 598.671875 324.785156 599.628906 317.277344 605.53125 305.53125 Z M 588.878906 352.59375 C 583.273438 357.902344 582.453125 365.683594 579.464844 372.144531 C 573.949219 384.070312 566.625 397.210938 562.089844 408.34375 C 560.988281 411.042969 558.230469 412.886719 557.019531 415.582031 C 553.332031 423.804688 550.746094 432.542969 549.054688 440.199219 C 567.003906 409.300781 582.140625 369.589844 596.839844 341.007812 C 591.265625 341.949219 590.535156 347.734375 588.878906 352.59375 Z M 588.878906 352.59375 " fill-opacity="1" fill-rule="evenodd"/><path fill="#201e1e" d="M 332.574219 310.601562 C 336.125 316.464844 333.917969 320.40625 335.46875 327.976562 C 331.488281 328.4375 327.054688 323.464844 323.160156 321.460938 C 325.023438 316.558594 331.777344 316.566406 332.574219 310.601562 Z M 332.574219 310.601562 " fill-opacity="1" fill-rule="evenodd"/><path fill="#201e1e" d="M 462.171875 311.324219 C 459.339844 321.277344 449.0625 329.414062 439.003906 334.492188 C 441.386719 325.695312 449.894531 310.738281 462.171875 311.324219 Z M 462.171875 311.324219 " fill-opacity="1" fill-rule="evenodd"/><path fill="#ffffff" d="M 376.738281 328.703125 C 375.871094 334.160156 370.824219 335.128906 368.773438 331.597656 C 370.179688 327.882812 374.632812 326.304688 376.738281 328.703125 Z M 376.738281 328.703125 " fill-opacity="1" fill-rule="evenodd"/><path fill="#201e1e" d="M 449.867188 377.210938 C 454.578125 380.539062 456.183594 372.527344 460.726562 374.316406 C 460.6875 383.277344 445.929688 391.621094 441.175781 382.277344 C 438.53125 377.074219 447.160156 368.949219 446.96875 362.007812 C 437.640625 366.21875 437.3125 377.027344 436.832031 384.449219 C 422.816406 382.058594 429.773438 369.160156 436.109375 360.558594 C 428.574219 360.992188 423.613281 370.265625 424.523438 381.554688 C 411.738281 381.335938 418.191406 362.164062 426.695312 356.214844 C 419.925781 352.746094 418.175781 361.664062 415.113281 365.625 C 413.144531 368.171875 409.289062 371.894531 406.425781 374.316406 C 398.582031 380.9375 390.074219 389.546875 381.082031 393.140625 C 382.925781 389.914062 386.96875 388.890625 389.046875 385.898438 C 388.617188 383.191406 386.515625 382.15625 385.425781 380.105469 C 387.636719 376.960938 392.8125 369.441406 397.011719 366.351562 C 400.015625 364.140625 405.398438 360.140625 410.769531 356.214844 C 417.691406 351.148438 425.492188 347.296875 433.9375 342.457031 C 438.097656 340.074219 445.578125 334.128906 450.589844 333.046875 C 459.328125 331.15625 470.378906 339.164062 477.378906 346.800781 C 478.863281 348.421875 478.125 353.066406 478.101562 356.214844 C 470.574219 365.917969 456.699219 368.550781 449.867188 377.210938 Z M 449.867188 377.210938 " fill-opacity="1" fill-rule="evenodd"/><path fill="#201e1e" d="M 307.957031 346.078125 C 306.351562 350.507812 301.777344 350.101562 299.269531 350.421875 C 298.648438 352.730469 300.410156 352.660156 300.71875 354.042969 C 303.382812 353.496094 305.929688 349.410156 310.128906 351.144531 C 299.664062 369.222656 279.371094 343.40625 270.308594 354.042969 C 259.503906 361.855469 264.449219 377.75 253.65625 385.175781 C 246.890625 373.121094 251.339844 356.8125 258 346.078125 C 264.003906 344.546875 264.257812 339.773438 268.136719 337.390625 C 284.859375 327.109375 291.058594 353.253906 307.957031 346.078125 Z M 307.957031 346.078125 " fill-opacity="1" fill-rule="evenodd"/><path fill="#ffffff" d="M 596.839844 341.007812 C 582.140625 369.589844 567.003906 409.300781 549.054688 440.199219 C 550.746094 432.542969 553.332031 423.804688 557.019531 415.582031 C 558.230469 412.886719 560.988281 411.042969 562.089844 408.34375 C 566.625 397.210938 573.949219 384.070312 579.464844 372.144531 C 582.453125 365.683594 583.273438 357.902344 588.878906 352.59375 C 590.535156 347.734375 591.265625 341.949219 596.839844 341.007812 Z M 596.839844 341.007812 " fill-opacity="1" fill-rule="evenodd"/><path fill="#201e1e" d="M 274.652344 355.488281 C 277.605469 359.941406 268.433594 364.019531 267.410156 369.246094 C 263.828125 365.148438 270.753906 358.640625 274.652344 355.488281 Z M 274.652344 355.488281 " fill-opacity="1" fill-rule="evenodd"/><path fill="#201e1e" d="M 381.808594 383.003906 C 384.117188 382.382812 384.046875 384.144531 385.425781 384.449219 C 384.648438 386.566406 383.425781 388.242188 380.359375 388.070312 C 380.835938 384.878906 380.242188 385.101562 381.808594 383.003906 Z M 381.808594 383.003906 " fill-opacity="1" fill-rule="evenodd"/><path fill="#ffffff" d="M 506.339844 453.957031 C 501.425781 457.519531 493.371094 456.21875 487.515625 456.128906 C 454.621094 455.617188 428.050781 437.949219 396.289062 452.507812 C 400.253906 446.25 409.253906 444.488281 414.386719 443.820312 C 437.777344 440.773438 460.785156 449.957031 483.171875 451.0625 C 487.375 451.269531 490.796875 452.511719 494.753906 453.234375 C 498.425781 453.90625 503.195312 450.460938 506.339844 453.957031 Z M 506.339844 453.957031 " fill-opacity="1" fill-rule="evenodd"/><path fill="#ffffff" d="M 473.757812 468.4375 C 448.273438 464.714844 422.855469 459.054688 395.5625 465.542969 C 401.164062 457.617188 410.625 460.371094 416.558594 457.578125 C 434.4375 458.640625 457.277344 458.664062 473.757812 468.4375 Z M 473.757812 468.4375 " fill-opacity="1" fill-rule="evenodd"/><path fill="#201e1e" d="M 412.214844 221.546875 C 410.457031 231.109375 403.257812 232.273438 397.011719 238.199219 C 397.425781 239.957031 401.695312 237.859375 401.355469 240.371094 C 393.714844 251.308594 387.761719 261.09375 379.636719 272.226562 C 375.546875 269.375 368.691406 262.140625 360.8125 260.644531 C 346.777344 257.976562 334.894531 270.6875 338.367188 284.535156 C 337.015625 286.808594 332.945312 286.355469 331.125 288.15625 C 322.035156 276.464844 300.125 270.578125 289.855469 283.8125 C 284.191406 272.433594 280.992188 262.644531 285.511719 254.128906 C 291.984375 258.339844 298.773438 268.675781 306.507812 263.539062 C 297.199219 257.644531 289.417969 250.222656 281.167969 243.265625 C 279.535156 219.144531 294.929688 212.382812 304.335938 195.480469 C 306.382812 196.078125 306.214844 194.460938 307.957031 194.757812 C 310.46875 193.859375 309.289062 192.652344 310.128906 191.136719 C 328.039062 178.246094 348.199219 178.328125 371.671875 181.726562 C 379.1875 182.8125 386.402344 185.984375 392.667969 190.414062 C 399.988281 201.59375 404.382812 211.429688 412.214844 221.546875 Z M 339.8125 198.378906 C 330.238281 211.597656 323.285156 234.238281 331.851562 249.058594 C 337.136719 245.664062 332.613281 238.996094 332.574219 235.300781 C 332.402344 219.671875 342.007812 207.460938 349.949219 193.308594 C 353.429688 192.929688 354.632812 190.269531 355.019531 186.792969 C 349.863281 187.375 343.867188 192.785156 339.8125 198.378906 Z M 342.710938 191.863281 C 346.175781 190.761719 349.34375 187.074219 348.503906 183.898438 C 339.675781 183.542969 332.46875 195.230469 328.230469 204.167969 C 322.691406 215.851562 318.726562 230.390625 326.058594 239.648438 C 325.074219 219.429688 333.789062 205.679688 342.710938 191.863281 Z M 383.253906 207.066406 C 375.699219 217.886719 362.136719 226.4375 359.363281 239.648438 C 366.695312 239.101562 368.316406 226.992188 375.292969 223.71875 C 376.03125 222.765625 376 221.050781 376.738281 220.097656 C 380.972656 216.332031 385.945312 212.0625 387.597656 207.789062 C 386.746094 206.957031 385.035156 206.96875 383.253906 207.066406 Z M 370.945312 238.921875 C 374.707031 240.726562 379.082031 234.558594 379.636719 228.785156 C 385.703125 224.476562 389.347656 217.742188 395.5625 213.582031 C 395.320312 211.894531 394.820312 210.460938 393.390625 209.960938 C 383.980469 217.222656 373.726562 227.441406 370.945312 238.921875 Z M 381.808594 235.300781 C 386.097656 234.039062 387.230469 229.625 389.773438 226.613281 C 394.414062 223.777344 398.410156 220.289062 401.355469 215.753906 C 392.285156 219.261719 382.675781 225.992188 381.808594 235.300781 Z M 386.152344 238.199219 C 391.558594 238.207031 396.214844 231.433594 399.90625 227.339844 C 403.332031 226.660156 405.480469 224.707031 406.425781 221.546875 C 406.269531 220.734375 405.621094 220.417969 404.976562 220.097656 C 397.179688 224.160156 388.070312 230.664062 386.152344 238.199219 Z M 327.503906 258.472656 C 329.105469 257.429688 326.59375 256.703125 328.230469 256.300781 C 320.464844 246.929688 314.925781 235.332031 303.613281 229.511719 C 309.058594 241.214844 318.1875 253.046875 327.503906 258.472656 Z M 313.023438 256.300781 C 315.347656 258.382812 319.894531 262.605469 322.4375 259.917969 C 315.347656 249.667969 304.472656 241.257812 293.476562 233.128906 C 296.75 239.78125 305.972656 249.972656 313.023438 256.300781 Z M 313.023438 261.367188 C 309.855469 252.679688 296.164062 248.324219 291.304688 238.921875 L 289.132812 238.921875 C 294.003906 249.492188 301.746094 257.195312 313.023438 261.367188 Z M 313.023438 261.367188 " fill-opacity="1" fill-rule="evenodd"/><g clip-path="url(#9844394cf6)"><g clip-path="url(#554b6edfa5)"><g clip-path="url(#46a93eea5d)"><path fill="#ffffff" d="M 176.519531 209.257812 C 175.753906 206.179688 173.875 203.042969 171.175781 199.457031 C 169.261719 196.910156 163.824219 191.820312 154.972656 183.546875 L 152.804688 181.523438 C 150.101562 178.992188 148.296875 176.175781 146.757812 173.785156 C 146.417969 173.253906 146.089844 172.75 145.769531 172.269531 C 141.523438 165.890625 138.460938 157.796875 138.066406 147.765625 C 137.117188 123.628906 149.554688 108.167969 174.113281 102.894531 C 200.5 97.230469 219.632812 104.496094 228.457031 124.84375 C 231.886719 132.75 231.585938 140.65625 229.945312 147.671875 C 229.113281 151.246094 228.3125 154.148438 227.183594 156 C 219.363281 168.824219 215.601562 175.664062 215.5 177.226562 C 215.492188 177.332031 215.472656 177.433594 215.4375 177.53125 C 213.476562 183.066406 212.054688 192.671875 212.214844 202.683594 C 212.222656 203.3125 211.71875 203.832031 211.089844 203.84375 C 210.457031 203.851562 209.9375 203.347656 209.925781 202.71875 C 209.765625 192.53125 211.203125 182.636719 213.28125 176.769531 L 213.21875 177.078125 C 213.367188 174.78125 217.660156 167.222656 225.230469 154.808594 C 226.136719 153.328125 226.867188 150.796875 227.71875 147.152344 C 229.289062 140.441406 229.535156 133.070312 226.359375 125.753906 C 218.109375 106.734375 200.304688 99.613281 174.59375 105.132812 C 151.054688 110.183594 139.445312 124.714844 140.351562 147.675781 C 140.730469 157.269531 143.652344 164.957031 147.671875 171 C 148.003906 171.5 148.34375 172.023438 148.679688 172.546875 C 150.230469 174.957031 151.898438 177.542969 154.367188 179.851562 L 156.535156 181.878906 C 165.269531 190.042969 170.933594 195.328125 173.003906 198.082031 C 175.75 201.726562 177.859375 205.164062 178.738281 208.707031 C 178.890625 209.320312 178.519531 209.941406 177.90625 210.09375 C 177.292969 210.246094 176.671875 209.871094 176.519531 209.257812 Z M 176.519531 209.257812 " fill-opacity="1" fill-rule="nonzero"/></g></g></g><g clip-path="url(#bcd6b64721)"><g clip-path="url(#53c8d113be)"><g clip-path="url(#74352cd9ec)"><path fill="#ffffff" d="M 214.433594 205.878906 C 211.214844 203.859375 202.542969 202.90625 187.144531 206.476562 C 183.246094 207.378906 180.53125 208.652344 178.917969 209.871094 C 175.882812 212.164062 174.5 214.011719 174.234375 215.261719 C 174.128906 215.757812 174.453125 216.6875 176.398438 218.214844 C 177.550781 219.121094 178.882812 219.589844 180.507812 219.644531 C 182.335938 219.707031 186.324219 219.210938 192.636719 218.097656 C 196.910156 217.34375 201.0625 216.433594 205.0625 215.183594 C 207.269531 214.492188 209.101562 213.726562 210.53125 212.824219 C 213.710938 210.816406 215.148438 209.480469 215.429688 208.988281 C 216.285156 207.488281 216.40625 206.902344 214.59375 205.867188 C 214.367188 205.738281 214.109375 205.605469 213.816406 205.46875 C 213.246094 205.199219 213.003906 204.515625 213.273438 203.945312 C 213.542969 203.375 214.226562 203.128906 214.796875 203.398438 C 215.132812 203.558594 215.441406 203.71875 215.726562 203.882812 C 218.964844 205.734375 218.691406 207.886719 217.414062 210.125 C 216.804688 211.1875 214.847656 212.804688 211.753906 214.757812 C 210.089844 215.808594 208.050781 216.644531 205.746094 217.367188 C 201.617188 218.65625 197.363281 219.585938 193.03125 220.347656 C 186.777344 221.453125 182.539062 222 180.429688 221.929688 C 178.367188 221.859375 176.554688 221.246094 174.988281 220.015625 C 173.09375 218.53125 171.578125 216.773438 171.996094 214.789062 C 172.449219 212.65625 174.464844 210.371094 177.539062 208.046875 C 179.484375 206.578125 182.527344 205.199219 186.625 204.246094 C 202.023438 200.679688 211.5625 201.378906 215.652344 203.941406 C 216.183594 204.277344 216.347656 204.984375 216.011719 205.519531 C 215.675781 206.054688 214.96875 206.214844 214.433594 205.878906 Z M 214.433594 205.878906 " fill-opacity="1" fill-rule="nonzero"/></g></g></g><g clip-path="url(#ef01dbf5ba)"><g clip-path="url(#85ab056b8e)"><g clip-path="url(#9429514cf9)"><path fill="#ffffff" d="M 176.804688 219.167969 C 176.628906 219.214844 176.460938 219.308594 176.320312 219.445312 C 173.714844 221.960938 172.277344 224.0625 172 225.746094 C 171.988281 225.820312 171.984375 225.898438 171.984375 225.972656 C 172.074219 228.597656 173.472656 230.105469 176.1875 230.496094 C 178.117188 230.808594 180.359375 230.804688 182.910156 230.480469 L 182.929688 230.480469 C 196.019531 228.585938 204.167969 227.335938 207.382812 226.734375 L 207.386719 226.734375 C 208.636719 226.5 209.789062 226.234375 210.84375 225.9375 C 215.558594 224.613281 218.332031 222.6875 219.164062 220.15625 C 220.007812 218.140625 219.988281 216.460938 219.105469 215.117188 C 219.03125 215.003906 218.9375 214.902344 218.828125 214.824219 C 215.972656 212.707031 213.90625 211.722656 212.621094 211.859375 C 212.558594 211.867188 212.496094 211.878906 212.4375 211.898438 C 211.910156 212.046875 211.550781 212.558594 211.609375 213.121094 C 211.679688 213.75 212.242188 214.203125 212.871094 214.132812 C 213.542969 214.0625 215.015625 214.859375 217.289062 216.527344 L 217.285156 216.527344 C 217.621094 217.191406 217.542969 218.113281 217.046875 219.292969 C 217.03125 219.328125 217.019531 219.359375 217.007812 219.394531 C 216.449219 221.183594 214.246094 222.617188 210.398438 223.699219 C 209.371094 223.984375 208.226562 224.25 206.964844 224.488281 C 203.78125 225.082031 195.667969 226.324219 182.625 228.210938 L 182.625 228.214844 C 180.28125 228.507812 178.253906 228.515625 176.539062 228.234375 L 176.515625 228.230469 C 175.109375 228.027344 174.363281 227.289062 174.277344 226.019531 L 174.273438 226.019531 C 174.519531 224.839844 175.730469 223.195312 177.910156 221.089844 C 178.363281 220.652344 178.375 219.925781 177.9375 219.472656 C 177.632812 219.160156 177.195312 219.058594 176.804688 219.167969 Z M 176.804688 219.167969 " fill-opacity="1" fill-rule="nonzero"/></g></g></g><g clip-path="url(#b9e629f74b)"><g clip-path="url(#f40ba96cd1)"><g clip-path="url(#f2bf3d959c)"><path fill="#ffffff" d="M 215.945312 223.195312 C 216.667969 226.265625 214.949219 228.921875 211.507812 230.800781 C 208.238281 232.589844 201.964844 233.964844 193.183594 235.503906 C 188.03125 236.40625 186.371094 236.210938 183.535156 235.183594 C 181.523438 234.457031 179.320312 233.617188 178.269531 230.636719 C 178.0625 230.039062 178.375 229.386719 178.972656 229.175781 C 179.566406 228.96875 180.21875 229.28125 180.429688 229.875 C 181.097656 231.777344 182.335938 232.320312 184.3125 233.035156 C 186.660156 233.882812 187.890625 234.109375 192.789062 233.253906 C 201.695312 231.691406 207.542969 230.363281 210.414062 228.796875 C 213.375 227.179688 214.113281 225.382812 213.71875 223.714844 C 213.578125 223.101562 213.957031 222.488281 214.574219 222.34375 C 215.1875 222.199219 215.800781 222.578125 215.945312 223.195312 Z M 215.945312 223.195312 " fill-opacity="1" fill-rule="nonzero"/></g></g></g><g clip-path="url(#36bc33184a)"><g clip-path="url(#d52afa694b)"><g clip-path="url(#6cf3755be4)"><path fill="#ffffff" d="M 191.230469 234.691406 C 191.0625 234.738281 190.902344 234.824219 190.765625 234.953125 C 190.300781 235.382812 190.273438 236.105469 190.703125 236.570312 C 194.519531 240.6875 198.132812 242.359375 201.542969 241.585938 L 201.574219 241.578125 C 201.640625 241.558594 201.707031 241.542969 201.773438 241.523438 C 203.371094 241.074219 204.617188 240.191406 205.515625 238.871094 L 205.511719 238.871094 C 206.132812 238.054688 206.617188 237.292969 206.972656 236.578125 C 207.359375 235.816406 207.796875 234.789062 208.289062 233.488281 L 208.285156 233.488281 C 208.429688 233.167969 208.59375 232.878906 208.773438 232.621094 L 208.796875 232.585938 C 209.164062 232.070312 209.039062 231.355469 208.523438 230.992188 C 208.226562 230.78125 207.863281 230.734375 207.542969 230.824219 C 207.308594 230.886719 207.101562 231.027344 206.957031 231.230469 L 206.929688 231.265625 C 206.65625 231.652344 206.414062 232.082031 206.199219 232.546875 C 206.1875 232.574219 206.179688 232.597656 206.167969 232.621094 C 205.703125 233.871094 205.289062 234.84375 204.9375 235.539062 L 204.929688 235.550781 C 204.640625 236.140625 204.226562 236.785156 203.6875 237.488281 C 203.671875 237.507812 203.660156 237.527344 203.644531 237.550781 C 203.0625 238.429688 202.226562 239.019531 201.148438 239.324219 C 201.109375 239.335938 201.070312 239.347656 201.027344 239.355469 C 198.476562 239.929688 195.59375 238.480469 192.378906 235.015625 C 192.078125 234.6875 191.632812 234.578125 191.230469 234.691406 Z M 191.230469 234.691406 " fill-opacity="1" fill-rule="nonzero"/></g></g></g><g clip-path="url(#82c1a95f02)"><g clip-path="url(#0131296a7b)"><g clip-path="url(#7137c26334)"><path fill="#ffffff" d="M 185.3125 205.1875 C 184.429688 194.691406 182.910156 188.019531 181.144531 184.792969 C 180.03125 182.757812 178.285156 179.816406 175.617188 176.113281 L 175.667969 176.179688 L 162.226562 160.171875 C 162.191406 160.132812 162.160156 160.089844 162.132812 160.046875 C 160.492188 157.429688 159.535156 154.402344 159.570312 150.984375 C 159.640625 143.601562 163.03125 139.144531 169.675781 139.207031 C 170.0625 139.210938 170.457031 139.230469 170.863281 139.265625 C 174.90625 139.609375 178.328125 141.367188 180.523438 144.371094 C 183.210938 148.046875 183.488281 151.636719 181.085938 154.269531 C 180.972656 154.390625 180.839844 154.488281 180.6875 154.550781 C 178.085938 155.660156 175.933594 154.542969 174.632812 151.890625 C 173.214844 148.996094 172.664062 145.789062 173.183594 142.402344 C 174.003906 137.097656 178.1875 134.007812 184.738281 133.601562 C 190.316406 133.253906 194.242188 135.609375 196.5 139.738281 C 197.691406 141.917969 197.851562 144.675781 196.933594 147.992188 C 196.359375 150.070312 195.167969 152.503906 192.894531 151.875 C 192.636719 151.804688 192.398438 151.695312 192.171875 151.5625 C 189.496094 149.96875 189.265625 146.554688 190.417969 142.683594 C 191.285156 139.78125 193.808594 137.066406 198.0625 135.921875 C 204.621094 134.160156 209.601562 137.828125 211.503906 144.910156 C 211.527344 144.996094 211.546875 145.082031 211.570312 145.171875 C 212.460938 148.65625 212.054688 152.34375 210.457031 155.53125 C 204.113281 168.171875 200.746094 175.496094 200.222656 178.132812 C 198.585938 186.378906 197.585938 193.96875 198.164062 202.914062 C 198.203125 203.546875 197.726562 204.089844 197.097656 204.128906 C 196.464844 204.171875 195.921875 203.691406 195.882812 203.0625 C 195.285156 193.839844 196.324219 186.03125 197.980469 177.6875 C 198.578125 174.660156 202.15625 166.972656 208.410156 154.507812 C 209.765625 151.808594 210.109375 148.6875 209.355469 145.738281 C 209.335938 145.660156 209.316406 145.578125 209.292969 145.5 C 207.628906 139.308594 203.6875 136.777344 198.65625 138.132812 C 195.097656 139.089844 193.226562 141.265625 192.609375 143.335938 C 191.496094 147.070312 192.160156 148.894531 193.34375 149.597656 C 193.417969 149.640625 193.472656 149.660156 193.503906 149.671875 C 193.390625 149.640625 194.027344 149.917969 194.730469 147.382812 C 195.546875 144.433594 195.3125 142.332031 194.492188 140.835938 C 192.675781 137.507812 189.601562 135.589844 184.878906 135.882812 C 179.027344 136.246094 176.046875 138.839844 175.445312 142.75 C 174.996094 145.660156 175.464844 148.394531 176.683594 150.882812 C 177.585938 152.71875 178.570312 152.96875 179.792969 152.445312 L 179.394531 152.726562 C 180.785156 151.203125 181.003906 148.902344 178.675781 145.71875 C 176.925781 143.328125 174.152344 141.839844 170.667969 141.542969 C 170.320312 141.515625 169.980469 141.496094 169.65625 141.496094 C 164.675781 141.445312 161.921875 144.441406 161.855469 151.007812 C 161.828125 153.960938 162.648438 156.5625 164.070312 158.828125 L 163.976562 158.703125 L 177.417969 174.710938 C 177.4375 174.730469 177.453125 174.753906 177.46875 174.777344 C 180.203125 178.5625 181.996094 181.585938 183.152344 183.695312 C 185.167969 187.386719 186.707031 194.5 187.589844 204.996094 C 187.644531 205.625 187.175781 206.175781 186.546875 206.230469 C 185.917969 206.28125 185.363281 205.816406 185.3125 205.1875 Z M 185.3125 205.1875 " fill-opacity="1" fill-rule="nonzero"/></g></g></g><g clip-path="url(#219f777b5b)"><g clip-path="url(#ef2088eccf)"><g clip-path="url(#2042cdc5c0)"><path fill="#ffffff" d="M 194.796875 63.230469 C 194.441406 63.328125 194.140625 63.597656 194.019531 63.976562 C 191.539062 71.585938 190.195312 75.628906 189.984375 76.105469 L 189.980469 76.105469 C 189.957031 76.152344 189.9375 76.195312 189.921875 76.246094 C 189.480469 77.511719 188.386719 80.097656 186.636719 84.011719 L 186.621094 84.042969 C 186.296875 84.835938 185.996094 85.664062 185.722656 86.527344 L 185.722656 86.53125 C 185.53125 87.132812 185.867188 87.773438 186.464844 87.964844 C 186.6875 88.03125 186.914062 88.03125 187.121094 87.976562 C 187.476562 87.875 187.78125 87.597656 187.902344 87.214844 C 188.15625 86.425781 188.429688 85.667969 188.722656 84.941406 L 188.722656 84.945312 C 190.457031 81.070312 191.5625 78.453125 192.046875 77.097656 L 192.042969 77.097656 C 192.054688 77.078125 192.0625 77.054688 192.074219 77.035156 C 192.316406 76.484375 193.691406 72.367188 196.191406 64.683594 C 196.386719 64.082031 196.058594 63.4375 195.460938 63.242188 C 195.234375 63.171875 195.007812 63.167969 194.796875 63.230469 Z M 194.796875 63.230469 " fill-opacity="1" fill-rule="nonzero"/></g></g></g><g clip-path="url(#81b273b7ec)"><g clip-path="url(#33f0c1573a)"><g clip-path="url(#b9a0180e7a)"><path fill="#ffffff" d="M 243.523438 81.316406 C 243.351562 81.367188 243.1875 81.457031 243.046875 81.585938 C 238.652344 85.742188 233.976562 90.304688 229.019531 95.269531 L 229.015625 95.269531 C 226.671875 97.417969 224.886719 98.863281 223.652344 99.613281 C 223.113281 99.941406 222.941406 100.644531 223.269531 101.1875 C 223.539062 101.632812 224.074219 101.828125 224.554688 101.695312 C 224.652344 101.664062 224.746094 101.625 224.839844 101.570312 C 226.207031 100.738281 228.128906 99.1875 230.597656 96.921875 C 230.613281 96.910156 230.625 96.898438 230.636719 96.886719 C 235.578125 91.9375 240.242188 87.390625 244.621094 83.25 C 245.078125 82.8125 245.097656 82.089844 244.664062 81.632812 C 244.363281 81.3125 243.921875 81.207031 243.523438 81.316406 Z M 243.523438 81.316406 " fill-opacity="1" fill-rule="nonzero"/></g></g></g><g clip-path="url(#55aef1db2d)"><g clip-path="url(#f7ee2facba)"><g clip-path="url(#6e3fb58144)"><path fill="#ffffff" d="M 249.59375 135.207031 C 248.660156 135.46875 247.761719 135.78125 246.898438 136.136719 C 246.316406 136.378906 246.039062 137.046875 246.277344 137.628906 C 246.503906 138.171875 247.09375 138.449219 247.644531 138.292969 C 247.6875 138.28125 247.730469 138.265625 247.773438 138.25 C 248.550781 137.925781 249.363281 137.648438 250.210938 137.410156 C 251.886719 136.941406 253.691406 136.636719 255.625 136.496094 C 255.652344 136.496094 255.679688 136.492188 255.710938 136.488281 C 257.023438 136.292969 262.335938 136.257812 271.648438 136.390625 C 271.761719 136.390625 271.871094 136.375 271.972656 136.347656 C 272.449219 136.214844 272.800781 135.78125 272.804688 135.261719 C 272.816406 134.628906 272.308594 134.109375 271.679688 134.101562 C 262.363281 133.972656 256.945312 134.011719 255.429688 134.21875 L 255.425781 134.21875 C 253.351562 134.371094 251.40625 134.699219 249.59375 135.207031 Z M 249.59375 135.207031 " fill-opacity="1" fill-rule="nonzero"/></g></g></g><g clip-path="url(#ff0200c7e3)"><g clip-path="url(#0f55bc3eb2)"><g clip-path="url(#86691a40c9)"><path fill="#ffffff" d="M 239.320312 175.359375 C 239.21875 175.726562 239.007812 175.953125 238.6875 176.042969 C 238.546875 176.085938 238.386719 176.097656 238.203125 176.085938 L 238.207031 176.082031 C 238.328125 176.089844 238.449219 176.074219 238.5625 176.042969 C 238.902344 175.945312 239.183594 175.695312 239.316406 175.359375 Z M 237.796875 173.839844 C 237.390625 173.953125 237.15625 174.28125 237.097656 174.828125 C 237.050781 175.273438 237.230469 175.640625 237.628906 175.929688 C 238.175781 176.328125 241.695312 178.253906 248.195312 181.710938 L 248.191406 181.710938 L 257.320312 187.023438 C 257.601562 187.1875 257.917969 187.21875 258.207031 187.136719 C 258.484375 187.058594 258.730469 186.878906 258.886719 186.609375 C 259.203125 186.066406 259.019531 185.367188 258.472656 185.046875 L 249.304688 179.714844 L 249.269531 179.695312 C 243.265625 176.5 239.871094 174.65625 239.09375 174.160156 L 239.089844 174.164062 C 238.910156 173.96875 238.65625 173.832031 238.371094 173.804688 C 238.152344 173.78125 237.960938 173.792969 237.796875 173.839844 Z M 237.796875 173.839844 " fill-opacity="1" fill-rule="nonzero"/></g></g></g><g clip-path="url(#b6d113e806)"><g clip-path="url(#37b21ce1ce)"><g clip-path="url(#47a41c2847)"><path fill="#ffffff" d="M 130.960938 184.425781 C 130.804688 184.46875 130.65625 184.550781 130.523438 184.664062 C 125.449219 189.058594 121.0625 193.222656 117.359375 197.152344 C 116.925781 197.613281 116.945312 198.335938 117.40625 198.769531 C 117.710938 199.054688 118.125 199.144531 118.5 199.039062 C 118.695312 198.984375 118.875 198.878906 119.023438 198.722656 C 122.671875 194.847656 127.007812 190.738281 132.019531 186.390625 C 132.5 185.976562 132.550781 185.253906 132.136719 184.777344 C 131.835938 184.433594 131.375 184.308594 130.960938 184.425781 Z M 130.960938 184.425781 " fill-opacity="1" fill-rule="nonzero"/></g></g></g><g clip-path="url(#52a07d98c8)"><g clip-path="url(#38eafa7244)"><g clip-path="url(#4bc291f1da)"><path fill="#ffffff" d="M 99.273438 137.671875 C 98.921875 137.769531 98.625 138.035156 98.496094 138.40625 C 98.296875 139.003906 98.617188 139.652344 99.214844 139.855469 C 100.671875 140.347656 104.238281 141.351562 109.90625 142.863281 C 109.921875 142.871094 109.941406 142.875 109.960938 142.878906 C 116.636719 144.3125 120.234375 145.125 120.757812 145.320312 C 120.816406 145.34375 120.878906 145.363281 120.941406 145.378906 C 121.710938 145.554688 122.527344 145.917969 123.382812 146.460938 C 123.667969 146.644531 124.003906 146.683594 124.304688 146.597656 C 124.566406 146.523438 124.804688 146.359375 124.960938 146.109375 C 125.300781 145.578125 125.144531 144.871094 124.609375 144.53125 C 123.566406 143.867188 122.542969 143.414062 121.546875 143.171875 L 121.542969 143.171875 C 120.894531 142.9375 117.207031 142.097656 110.484375 140.652344 C 104.871094 139.152344 101.359375 138.164062 99.945312 137.6875 C 99.71875 137.613281 99.488281 137.609375 99.273438 137.671875 Z M 99.273438 137.671875 " fill-opacity="1" fill-rule="nonzero"/></g></g></g><g clip-path="url(#90b7499b44)"><g clip-path="url(#5b3e67fed9)"><g clip-path="url(#a5b32beac5)"><path fill="#ffffff" d="M 133.257812 71.722656 C 133.132812 71.757812 133.011719 71.816406 132.898438 71.894531 C 132.386719 72.261719 132.269531 72.976562 132.636719 73.488281 C 135.335938 77.261719 136.921875 79.523438 137.398438 80.28125 C 137.40625 80.296875 137.417969 80.316406 137.429688 80.332031 C 138.09375 81.285156 139.683594 83.882812 142.199219 88.121094 L 142.222656 88.15625 C 142.941406 89.273438 143.800781 90.507812 144.796875 91.855469 C 145.089844 92.25 145.582031 92.402344 146.027344 92.277344 C 146.15625 92.242188 146.28125 92.179688 146.398438 92.097656 C 146.90625 91.71875 147.011719 91.003906 146.636719 90.496094 C 145.679688 89.199219 144.855469 88.019531 144.164062 86.953125 C 141.660156 82.734375 140.050781 80.105469 139.335938 79.070312 C 138.835938 78.273438 137.222656 75.96875 134.496094 72.160156 C 134.207031 71.757812 133.707031 71.597656 133.257812 71.722656 Z M 133.257812 71.722656 " fill-opacity="1" fill-rule="nonzero"/></g></g></g><g clip-path="url(#7e315a1e6c)"><g clip-path="url(#c3f2d34633)"><g clip-path="url(#f821322d75)"><path fill="#ffffff" d="M 208.105469 114.832031 C 207.78125 114.921875 207.496094 115.15625 207.359375 115.496094 C 207.117188 116.078125 207.394531 116.746094 207.976562 116.988281 C 211.082031 118.273438 213.5625 120.054688 215.421875 122.328125 C 217.042969 124.457031 218.65625 128.074219 220.261719 133.1875 C 220.449219 133.777344 221.070312 134.113281 221.664062 133.945312 C 221.671875 133.941406 221.683594 133.941406 221.695312 133.9375 C 222.296875 133.746094 222.632812 133.105469 222.445312 132.503906 C 220.75 127.109375 219.007812 123.246094 217.214844 120.90625 L 217.191406 120.878906 C 215.089844 118.308594 212.308594 116.308594 208.851562 114.875 C 208.605469 114.773438 208.34375 114.765625 208.105469 114.832031 Z M 208.105469 114.832031 " fill-opacity="1" fill-rule="nonzero"/></g></g></g><g clip-path="url(#9bfe304091)"><g clip-path="url(#d3e04527a7)"><g clip-path="url(#3fd326635c)"><path fill="#ffffff" d="M 222.402344 143.820312 C 221.929688 143.949219 221.578125 144.382812 221.566406 144.929688 L 221.5625 144.929688 C 221.550781 145.296875 221.523438 145.671875 221.484375 146.042969 L 221.476562 146.167969 L 221.476562 146.136719 L 221.472656 146.136719 C 221.445312 146.414062 221.367188 146.875 221.234375 147.523438 C 221.109375 148.144531 221.507812 148.746094 222.128906 148.875 C 222.3125 148.910156 222.492188 148.902344 222.664062 148.855469 C 223.0625 148.742188 223.386719 148.414062 223.476562 147.980469 C 223.628906 147.222656 223.722656 146.664062 223.753906 146.300781 C 223.804688 145.851562 223.839844 145.402344 223.851562 144.953125 L 223.851562 144.910156 C 223.847656 144.296875 223.355469 143.792969 222.738281 143.777344 C 222.621094 143.773438 222.507812 143.789062 222.402344 143.820312 Z M 222.402344 143.820312 " fill-opacity="1" fill-rule="nonzero"/></g></g></g></svg>